<?xml version="1.0" encoding="UTF-8" standalone="no"?>
<!-- Created with Inkscape (http://www.inkscape.org/) -->

<svg
   xmlns:dc="http://purl.org/dc/elements/1.1/"
   xmlns:cc="http://creativecommons.org/ns#"
   xmlns:rdf="http://www.w3.org/1999/02/22-rdf-syntax-ns#"
   xmlns:svg="http://www.w3.org/2000/svg"
   xmlns="http://www.w3.org/2000/svg"
   xmlns:sodipodi="http://sodipodi.sourceforge.net/DTD/sodipodi-0.dtd"
   xmlns:inkscape="http://www.inkscape.org/namespaces/inkscape"
   id="svg3004"
   version="1.1"
   inkscape:version="0.48.5 r10040"
   xml:space="preserve"
   sodipodi:docname="logo.svg"
   viewBox="0 0 413.42242 402.22768"
   width="100%"
   height="100%"><metadata
     id="metadata3010"><rdf:RDF><cc:Work
         rdf:about=""><dc:format>image/svg+xml</dc:format><dc:type
           rdf:resource="http://purl.org/dc/dcmitype/StillImage" /><dc:title></dc:title></cc:Work></rdf:RDF></metadata><defs
     id="defs3008"><clipPath
       clipPathUnits="userSpaceOnUse"
       id="clipPath4011"><rect
         style="fill:#0000ff;fill-rule:evenodd;stroke:#000000;stroke-width:8px;stroke-linecap:butt;stroke-linejoin:miter;stroke-opacity:1"
         id="rect4013"
         width="3426.4431"
         height="3441.3408"
         x="670.39105"
         y="-6048.417"
         transform="scale(1,-1)" /></clipPath></defs><sodipodi:namedview
     pagecolor="none"
     bordercolor="#666666"
     borderopacity="1"
     objecttolerance="10"
     gridtolerance="10"
     guidetolerance="10"
     inkscape:pageopacity="0"
     inkscape:pageshadow="2"
     inkscape:window-width="1280"
     inkscape:window-height="747"
     id="namedview3006"
     showgrid="false"
     inkscape:zoom="0.537"
     inkscape:cx="-125.68372"
     inkscape:cy="317.72588"
     inkscape:window-x="0"
     inkscape:window-y="31"
     inkscape:window-maximized="1"
     inkscape:current-layer="g3012"
     fit-margin-top="0"
     fit-margin-left="0"
     fit-margin-right="0"
     fit-margin-bottom="0" /><g
     id="g3012"
     inkscape:groupmode="layer"
     inkscape:label="ink_ext_XXXXXX"
     transform="matrix(1.25,0,0,-1.25,-178.75635,752.32077)"><g
       id="g3014"
       transform="matrix(0.1,0,0,0.1,64.05959,19.366856)"
       clip-path="url(#clipPath4011)"><path
         style="fill:none;stroke:none"
         d="m 102.40625,273.75 0,405.9375 413.4375,0 0,-405.9375 -413.4375,0 z"
         transform="matrix(8,0,0,-8,-29.795158,8014.8976)"
         id="path3016"
         inkscape:connector-curvature="0" /><path
         d="m 1076.53,3917.89 c 0,23.64 0,47.24 0,70.88 5.03,9.15 1.59,19.12 2.63,28.69 0.64,61.03 11.61,120.75 24.35,180.23 16.85,78.43 42.03,154.34 74.1,227.79 15.05,34.55 38.38,64.54 60.63,94.81 33.86,46.07 73.03,86.96 120.83,119.01 14.56,9.77 29.46,18.93 45.47,26.06 28.98,12.95 48.43,5.79 59.26,-23.88 36.34,-99.81 90.58,-189.91 148.24,-278.25 7.88,-12.05 16.45,-23.56 27.96,-32.78 28.14,-22.43 60.58,-27.61 95.11,-24.55 60.97,5.36 121.02,18.29 182.17,21.63 43.14,2.35 86.25,4.72 129.48,5.97 80.83,2.38 161.64,2.46 242.47,2.51 12.71,0.02 25.37,1.87 37.55,5.24 17.88,4.84 25.92,15.97 26.34,34.41 0.26,14.78 -3.86,28.43 -10.06,41.64 -14.19,30.25 -32.49,57.93 -52.38,84.62 -45.67,61.37 -76.7,130.08 -100.14,202.39 -20.48,63.15 -30.43,128.27 -34.29,194.37 -0.71,12.08 -6.23,22.71 -10.13,33.77 -19.24,54.88 -37.78,109.96 -55.06,165.49 -7.6,24.26 -15.16,48.52 -37.29,64.68 -6.05,4.46 -8.24,12.17 -10.17,19.46 -6.28,24.13 -12.62,48.22 -16.97,72.78 -4.96,27.82 4.53,42.46 32.24,48.48 51.33,11.15 103.21,18.43 155.66,21.74 13.45,0.88 26.88,2.98 40.5,2.42 8.24,-0.33 12.4,4.79 16.33,11 27.36,42.87 58.22,82.96 94.35,118.94 40.27,40.08 85.92,72.95 135.64,99.96 87.11,47.33 180.15,76.14 278.43,88.15 12.51,1.53 25.16,1.67 37.81,2.3 2.78,0 5.56,0 8.35,0 3.4,0 6.77,0 10.14,0 4.58,0.62 9.4,-1.39 13.66,1.35 22.79,0 45.48,0 68.21,0 4.28,-2.74 9.08,-0.7 13.57,-1.35 3.45,0 6.8,0 10.23,0 3.43,0 6.87,0 10.31,0 63.85,-0.97 125.74,-13.79 186.7,-31.46 97.06,-28.14 185.26,-73.11 261.44,-139.95 44.85,-39.38 84.21,-83.93 114.91,-135.45 6.77,-11.36 14.23,-16.18 28,-16.66 81.26,-3.06 161.67,-14.53 241.33,-30.79 7.71,-1.57 15.25,-3.94 22.72,-6.15 5.68,-1.65 10.76,-4.1 11.77,-10.86 0.39,-2.56 -0.77,-5.45 1.47,-7.7 0,-2.62 0,-5.24 0,-7.86 -2.08,-2.05 -1.25,-4.69 -1.4,-7.11 0,-3.26 0,-6.52 0,-9.81 0.69,-27.56 -8.09,-53.39 -14.88,-79.52 -1.76,-6.64 -6.64,-11.22 -12.11,-15.07 -15.66,-10.93 -26.26,-25.7 -32.37,-43.47 -16.23,-47.54 -31.21,-95.54 -47.76,-143.01 -9.14,-26.39 -17.64,-53.1 -30.98,-77.85 -12.52,-23.28 -28.16,-44.24 -46.85,-62.84 -5.97,-5.91 -9,-12.06 -9.91,-20.47 -8.1,-80.34 -24.67,-158.8 -53.58,-234.44 -19.73,-51.68 -45.98,-100.05 -75.55,-146.57 -26.38,-41.5 -39.06,-87.45 -47.82,-134.99 -2.76,-14.59 3.73,-26.51 10.81,-38.12 14.75,-23.86 31.86,-46.04 50.61,-66.79 59.28,-65.41 106.74,-138.42 140.14,-220.07 25.19,-61.5 38.34,-126.05 46.79,-191.82 5.8,-45.25 6.57,-90.68 4.67,-136.05 -3.44,-85.45 -21.07,-167.97 -57.54,-245.92 -19.66,-42.12 -42.72,-82.18 -71.96,-118.45 -6.02,-7.41 -4.12,-11.03 3.59,-14.68 28.94,-13.78 55.32,-31.6 80.2,-51.78 14.11,-11.45 25.76,-24.99 35.4,-40.17 26.77,-42.39 20.23,-90.51 -16.79,-129.42 -34.71,-36.46 -77.37,-61.19 -122.47,-81.71 -96.44,-43.89 -198.06,-71.23 -301.32,-93.25 -88.96,-19 -178.68,-33.27 -268.96,-44.02 -58.44,-6.98 -117.12,-12.67 -175.93,-17.09 -47.85,-3.59 -95.78,-6.1 -143.67,-9 -28.61,-0.26 -57.28,0.29 -85.86,-1.4 -8.78,0 -17.47,0 -26.21,0 -11.54,-0.74 -23.21,1.55 -34.67,-1.35 -52.45,0 -104.93,0 -157.36,0 -11.44,2.9 -23.07,0.61 -34.52,1.35 -8.72,0 -17.44,0 -26.14,0 -28.65,1.94 -57.31,0.96 -85.98,1.4 -23.4,3.11 -47,2.17 -70.52,3.8 -53.09,3.58 -106.15,7.65 -159.1,12.72 -77.85,7.44 -155.44,16.94 -232.55,29.83 -135.97,22.74 -270.35,51.84 -398.65,104.08 -45.06,18.37 -87.97,40.79 -126.36,71.14 -18.26,14.41 -34.16,31.13 -45.54,51.76 -17.54,31.71 -17.47,63.49 -0.18,95.05 9.49,17.33 22.35,32.19 37.51,45.01 34.7,29.43 74.12,50.87 115.33,69.35 13.41,6.05 13.67,6.97 3.13,17.56 -88.42,88.9 -150.91,193.93 -193.9,311.18 -29.05,79.19 -46.99,160.9 -57.59,244.38 -1.91,15.1 -3.21,30.4 -2.44,45.71 -1.04,9.61 2.4,19.64 -2.63,28.84"
         style="fill:#100f0d;fill-opacity:1;fill-rule:nonzero;stroke:none"
         id="path3018"
         inkscape:connector-curvature="0" /><path
         d="m 3820.4,5245.24 -1.08,-0.3 -1.23,0.1 c -0.83,3.48 -0.39,6.94 0.15,10.39 0.54,1.46 1.21,1.51 2.16,0.3 0,-3.48 0,-7 0,-10.49"
         style="fill:#a7b1ae;fill-opacity:1;fill-rule:evenodd;stroke:none"
         id="path3020"
         inkscape:connector-curvature="0" /><path
         d="m 3818.16,5274.51 c 0.94,0.64 1.59,0.52 2.24,-0.41 0,-1.76 0,-3.48 0,-5.27 -2.91,1.12 -2.91,3.26 -2.24,5.68"
         style="fill:#87787b;fill-opacity:1;fill-rule:evenodd;stroke:none"
         id="path3022"
         inkscape:connector-curvature="0" /><path
         d="m 3820.4,5255.73 -1.08,-0.39 -1.08,0.09 c -0.46,2.32 -0.9,4.57 2.16,5.54 0,-1.73 0,-3.48 0,-5.24"
         style="fill:#5e6c6d;fill-opacity:1;fill-rule:evenodd;stroke:none"
         id="path3024"
         inkscape:connector-curvature="0" /><path
         d="m 2477.57,4670.49 c 0.79,-18.85 8.9,-35.05 19.05,-50.36 11.8,-17.85 26.47,-33.11 43.11,-46.57 2.95,-2.44 6.65,-4.11 8.7,-7.61 6.98,-9.06 10.34,-20.13 16.63,-29.63 29.65,-45.12 69.51,-77.97 118.8,-99.62 46.91,-20.6 96.34,-31.3 147.18,-35.35 86.76,-6.93 172.83,-1.94 258.14,15.45 38.98,7.94 78.11,6.63 117.42,3.7 16.18,-1.19 32.2,-2.5 47.93,-6.69 5.11,-1.38 10.14,-2.86 14.95,-4.98 23.67,-10.29 27.82,-28.3 10.9,-47.8 -13.96,-16.24 -31.81,-28.52 -46.53,-44.16 -10.02,-10.6 -18.76,-21.94 -25.63,-34.69 -15.43,-28.63 -10.54,-60.69 11.05,-84.88 63.73,-71.26 114.53,-151.03 154.66,-237.61 27.34,-58.97 48.09,-120.32 54.88,-185.27 12.5,-117.91 -11.93,-226.14 -89.08,-318.97 -40.12,-48.26 -89.65,-85.37 -144.79,-115.17 -93.24,-50.44 -193.88,-76.43 -297.9,-91.86 -51.05,-7.56 -102.31,-12.29 -154,-10.66 -19.76,0.67 -39.13,4.16 -57.64,11.41 -34.27,13.51 -47.7,40.14 -37.93,75.64 5.58,20.36 14.54,39.51 25.63,57.29 32.65,52.41 49.39,109.29 52.89,170.91 5.41,95.27 -18.15,182.44 -69.29,262.67 -3.75,5.9 -8.03,11.25 -13.51,15.54 -4.7,11.74 -9.17,23.56 -14.12,35.22 -7.85,18.48 -16.55,36.58 -27.09,53.66 -15.89,25.67 -36.23,46.81 -63.16,61.27 -11.56,6.27 -23.9,10.77 -36.37,14.58 -17.22,5.27 -32.6,-9.13 -29.5,-26.99 1.02,-6.05 3.14,-11.77 6.21,-17.15 2.28,-4.17 4.27,-8.51 6.4,-12.79 -1.31,-7.32 -6.49,-4.12 -10.18,-3.49 -30.7,4.94 -42.36,-4.96 -44.44,-36.15 -4.32,-65.44 -10.51,-130.59 -27.99,-194.15 -19.08,-69.26 -48.4,-132.99 -100.85,-183.88 -35.05,-34.05 -76.68,-57.7 -122.12,-74.77 -54.39,-20.54 -111.02,-30.46 -168.63,-36.06 -56.66,-5.46 -113.45,-6.79 -170.11,-4.72 -90.12,3.3 -179.5,12.08 -265.48,42.28 -61.19,21.5 -114.53,54.18 -154.87,105.58 -35.02,44.63 -50.54,97.1 -56.7,152.8 -2.2,19.53 -3.89,39.15 -4.88,58.67 -1.58,31.51 2.84,62.71 8.82,93.71 0.96,4.96 2.56,9.87 2.04,17.16 -7.61,-6.12 -10.79,-13.46 -15.74,-19.22 -3.65,-4.28 -3.76,-4.13 -8.35,-1.09 1.9,8.6 6.44,16.04 10.35,23.73 2.55,5.08 5.33,10.04 7.23,15.36 4.19,11.73 0.65,20.12 -10.44,26.04 -10.32,5.42 -19.98,4.67 -29.12,-2.77 -6.5,-5.32 -11.45,-11.86 -15.88,-18.89 -16.07,-25.51 -29.13,-52.39 -37.49,-81.45 -0.74,-2.45 -1.84,-4.82 -2.74,-7.25 -7.1,-4.25 -12.7,0.19 -17.96,3.65 -14.15,9.29 -24.38,22.05 -32.5,36.86 -23.55,42.96 -36.48,89.5 -46.99,136.81 -5.64,25.49 -12.67,50.67 -12.84,77.06 -1.23,15.35 1.55,30.46 3.42,45.56 5.79,45.93 15.47,91.03 29.16,135.32 23.89,77.6 59,149.88 103.66,217.61 19.72,29.91 40.8,58.78 63.7,86.29 4.78,5.7 10.03,10.97 15.21,16.23 3.7,3.72 7.82,7.01 12.7,9.12 7.78,3.34 15.34,3.03 22.04,-2.62 2.65,-2.26 5.17,-4.76 7.32,-7.44 7.85,-9.98 14.39,-20.74 19.02,-32.6 0.41,-5.14 -3.61,-4.46 -6.2,-3.95 -18.2,3.72 -28.74,-6.75 -37.77,-20.02 -7.36,-10.85 -13.76,-22.33 -19.95,-33.88 -29.95,-55.97 -59.21,-112.47 -67.65,-176.45 -3.93,-29.75 -5.73,-60.19 7.79,-88.87 14.41,-30.68 38.69,-50.45 69.9,-61.55 40.93,-14.53 83.29,-17.47 126.55,-14.96 76.46,4.48 149.33,27.76 224.05,41.09 93.4,16.68 187.23,29.84 281.57,39.31 59.48,5.91 119.11,9.84 178.79,13.58 26.53,1.67 53.28,-0.15 79.75,4.03 5.84,0.94 14.17,3.68 17.58,-5.68 -2.42,-6.69 -7.32,-11.74 -11.35,-17.43 -2.99,-4.27 -6.32,-8.43 -8.56,-13.04 -3.12,-6.42 -2.58,-12.95 2.67,-18.2 4.87,-4.85 10.59,-7.59 17.77,-5.31 5.07,1.6 9.68,3.93 13.96,7.02 26.57,19.16 52.78,38.72 75.44,62.64 18.41,19.43 34.29,40.71 46.38,64.66 24.89,49.52 24.02,99.16 -1.05,148.27 -20.01,38.99 -44.32,75.06 -74.53,107.06 -33.51,35.5 -60.51,75.5 -80.89,119.9 -1.62,3.51 -3.85,6.88 -3.98,10.98 4.5,3.06 9.33,1.66 13.96,0.73 52.68,-10.61 106.18,-13.8 159.63,-17.35 9.18,-0.61 18.33,-0.14 27.47,0.73 4.64,0.43 10.75,2.77 12.31,-5.13"
         style="fill:#f3ef15;fill-opacity:1;fill-rule:evenodd;stroke:none"
         id="path3026"
         inkscape:connector-curvature="0" /><path
         d="m 2643.19,3831.22 c 1.23,-0.32 2.59,-1.09 3.67,-0.78 1.34,0.27 2.1,3.2 3.96,0.32 8.59,-13.63 18.84,-26.22 25.67,-40.98 7.12,-15.41 15.52,-30.22 22.02,-46.05 8.39,-20.65 14.63,-41.92 19.99,-63.49 3.72,-15.18 6.41,-30.57 8.57,-46.09 1.28,-9.56 1.89,-18.98 2.08,-28.56 0.03,-2.64 -0.13,-5.35 0.48,-7.83 3.19,-12.94 3.19,-25.87 0.09,-38.8 -0.54,-2.09 -0.54,-4.36 -0.57,-6.53 -0.44,-43.74 -11.56,-85.18 -27.99,-125.28 -6.61,-16.13 -15.76,-31.11 -24.67,-46.13 -11.78,-19.9 -21.86,-40.65 -27.33,-63.39 -5.21,-21.75 3.72,-46.63 21.9,-57.16 11.49,-6.71 23.33,-11.56 36.23,-14.11 8.09,-1.57 16.18,-3.26 24.27,-4.65 2.99,-0.51 6.09,-0.51 9.14,-0.51 18.39,-0.04 36.74,-0.04 55.12,-0.04 4.32,0 8.67,-0.14 12.89,1.53 1.58,0.64 3.49,1.08 5.1,0.91 14.48,-1.36 28.63,2.19 42.94,2.98 10.38,0.6 20.61,2.76 30.92,4.2 8.62,1.18 17.24,2.2 25.78,3.56 10.71,1.7 21.52,3.23 32.11,5.45 25.05,5.33 50.14,10.29 75.03,16.78 25.7,6.72 50.89,15.34 76.07,23.72 20.77,6.88 40.83,15.34 60.33,25 9.4,4.6 18.85,8.89 28.2,13.66 23.38,11.94 45.23,26.27 66.82,41 15.86,10.8 31.12,22.44 44.46,36.34 3.36,3.42 6.66,6.78 10.94,9.31 2.87,1.75 5.77,4.25 7.48,7.16 3.72,6.1 8.85,10.85 13.81,15.72 9.29,9.2 17.24,19.61 24.79,30.21 11.96,16.63 22.74,34.04 32.12,52.27 13.73,26.94 23.67,55.24 30.66,84.64 2.82,11.77 6.35,23.59 7.27,35.65 0.98,12.11 4.26,23.99 3.43,36.36 -0.47,6.89 0.44,13.74 1.75,20.76 1.7,9.3 1.7,19.07 -0.46,28.57 -0.75,2.93 -1.29,6.03 -1.29,9 0.38,32.51 -6.8,63.84 -14.21,95.19 -7.63,32.31 -19.14,63.32 -31.57,94.05 -10.99,27.12 -24.14,53.36 -38.14,79.01 -10.94,19.83 -23.07,38.98 -34.81,58.37 -20.16,33.19 -43.96,63.78 -67.24,94.73 -7.15,9.64 -14.8,19.41 -24.03,27.54 -7.31,6.44 -12.27,14.7 -16.31,23.51 -3.07,6.79 -4.76,13.81 -4.81,21.49 -0.07,12.28 0.6,24.22 5.19,35.95 3.29,8.23 8.09,15.46 12.81,22.67 4.96,7.6 11.28,14.35 17.55,21.08 13.65,14.76 30.21,26.43 44.01,40.99 4.06,4.17 7.42,8.54 9.8,13.77 4.8,10.39 2.87,18.83 -6.25,25.3 -4.28,2.93 -8.63,5.65 -13.83,7.3 -17.09,5.58 -34.33,9.4 -52.42,9.46 -1.77,0 -3.58,-0.29 -5.21,0.11 -17.68,4.38 -35.6,1.79 -53.48,2.47 -3.87,0.14 -7.86,-0.19 -11.81,0.04 -18.85,1.28 -37.24,-2.73 -55.56,-6.32 -14.04,-2.75 -28.16,-5.18 -42.36,-7.3 -8.45,-1.28 -17.39,-0.85 -25.62,-3.97 -1.23,-0.46 -2.59,-0.65 -3.89,-0.65 -7.86,0.02 -15.71,-0.09 -23.26,-2.64 -17.02,1.42 -33.73,-3.31 -50.85,-2.93 -27.07,0.63 -54.23,0.15 -81.32,0.19 -7.78,0.03 -15.71,-0.82 -23.27,2.16 -1.13,0.47 -2.68,0.34 -3.89,0.41 -26.17,0.93 -51.67,6.39 -77.14,11.77 -24.88,5.21 -48.67,13.54 -71.96,23.33 -20.97,8.84 -40.27,20.6 -58.65,34.14 -17.38,12.79 -32.45,28.16 -46.18,44.42 -13.34,15.78 -25.94,32.96 -29.83,54.37 2.63,-1.48 5.4,-2.78 7.89,-4.44 32.99,-21.93 69.32,-34.86 108.55,-39.54 9.46,-1.13 19.16,-0.92 28.75,-1 3.77,-0.02 6.75,-0.89 9.46,-3.45 8.17,-7.56 18.01,-12.3 28.04,-16.65 40.2,-17.52 81.82,-30.39 125.34,-36.53 34.34,-4.82 68.75,-5.26 103.3,-1.39 50.9,5.71 98.9,20.87 144.73,43.26 2.01,0.96 3.89,2 5.83,3.08 4.87,2.81 9.37,6.77 14.66,8.23 4.85,1.38 10.37,0.14 15.64,0.03 35.53,-0.71 69.34,7.37 102,20.54 28.07,11.27 54.55,25.57 80.32,41.16 11.62,7.05 22.38,15.4 30.98,26.07 15.14,18.79 21,39.9 15.73,63.74 -2.2,9.66 -6.77,17.93 -13.35,25.18 -6.53,7.14 -13.95,13.28 -22.35,18.06 -9.45,5.41 -19.06,10.61 -28.74,15.65 -12.44,6.46 -24.73,13.05 -35.88,21.5 -0.1,4.9 2.88,3.97 5.79,2.97 12.53,-2.06 25.03,-4.16 37.47,-6.16 19.52,-3.13 39.22,-2.9 58.84,-3.03 12.67,-0.08 25.34,0.48 38,1.08 39.44,1.95 78.21,7.56 115.98,19.5 5.63,1.81 10.96,5 17.85,5.23 0.07,-11.16 -2.76,-21.67 -4.82,-32.26 -17.99,-94.52 -49.65,-184.49 -91.78,-270.8 -18.62,-38.09 -38.17,-75.67 -57.24,-113.48 -7.33,-14.42 -13.88,-29.17 -19.22,-44.45 -4.22,-12.41 -7.17,-25.05 -7.17,-38.45 0,-12.51 2.82,-24.16 8.07,-35.38 5.96,-12.76 13.52,-24.51 22.07,-35.58 21.19,-27.28 42.58,-54.37 63.92,-81.53 35.95,-45.82 68.38,-93.93 95.09,-145.77 31.67,-61.35 54.17,-125.73 64.09,-194.38 3.07,-21.17 4.26,-42.51 5.71,-63.86 1.76,-25 0.23,-49.83 -1.74,-74.55 -4.61,-57.39 -17.55,-112.96 -39.44,-166.26 -27.41,-66.26 -66.32,-124.76 -116.44,-175.95 -49.38,-50.43 -106.14,-90.73 -168.49,-123.39 -51.65,-27 -105.99,-47.45 -161.22,-65.51 -59.44,-19.34 -119.93,-34.44 -181.31,-46.42 -33.86,-6.56 -67.86,-12.13 -102.06,-17.1 -40.62,-5.82 -81.43,-10.46 -122.26,-14.54 -25.67,-2.54 -51.4,-4.41 -77.05,-6.21 -25.29,-1.8 -50.61,-3.42 -75.91,-4.48 -44.09,-1.94 -88.23,-2 -132.36,-1.47 -46.72,0.52 -93.41,2.9 -140.01,6.73 -44.38,3.59 -88.67,8.39 -132.84,14.41 -48.94,6.71 -97.62,14.63 -145.93,24.48 -72.36,14.72 -144.37,30.69 -214.36,54.66 -110.13,37.77 -210.98,92.46 -301.54,165.74 -19.42,15.7 -37.48,32.89 -50.34,54.67 0.1,2.65 0.93,4.37 4.01,3.41 22.7,-7.8 45.45,-15.48 68.07,-23.4 37.48,-13.05 74.87,-26.44 113.59,-35.63 29.33,-7.05 58.97,-12.4 88.68,-17.17 24.13,-3.89 48.39,-7.16 72.67,-9.99 20.38,-2.38 40.84,-4.27 61.3,-5.42 28.32,-1.56 56.73,-2.89 85.06,-3.05 45.39,-0.26 90.71,2.4 135.94,7.13 114.08,11.94 224.05,39.98 329.93,84.01 48.83,20.3 93.36,47.5 132.17,83.59 56.32,52.5 92.64,116.21 108.59,191.68 7.31,34.86 9.23,70.11 6.96,105.51 -2.18,33.65 -8.66,66.63 -18.54,98.89 -1.39,4.53 -2.64,9.16 -3.92,13.75"
         style="fill:#f3de06;fill-opacity:1;fill-rule:evenodd;stroke:none"
         id="path3028"
         inkscape:connector-curvature="0" /><path
         d="m 3389.2,4799.12 c -70.29,0.69 -129.94,15.43 -185.94,44.3 -48.39,24.93 -81.29,63.93 -101.26,114.08 -17.32,43.69 -28.09,88.96 -32.53,135.83 -1.06,11.74 -2.03,23.45 -1.74,35.27 0.39,14.13 3.2,27.74 8.78,40.71 6.63,15.57 16.71,28.58 30.21,38.93 9.38,7.24 19.61,13.03 30.59,17.55 40.07,16.53 81.58,27.91 124.76,33.17 33.8,4.06 67.69,7.61 101.72,9.41 39.28,2.09 78.59,1 117.81,-2.7 22.57,-2.11 45.16,-4.06 67.36,-9.26 24.59,-5.74 46.78,-16.24 67.92,-29.88 22.05,-14.24 35.64,-34.24 43.41,-58.79 6.88,-21.48 9.17,-43.56 7.11,-65.96 -3.34,-37.01 -8.8,-73.67 -17.77,-109.79 -9.47,-38.3 -22.75,-75.19 -42.96,-109.28 -7.04,-11.71 -15.21,-22.4 -25.96,-30.99 -7.55,-6.05 -15.63,-11.14 -24.55,-14.87 -39.62,-16.76 -80.52,-28.62 -123.24,-34.21 -16.79,-2.23 -33.79,-3.91 -43.72,-3.52"
         style="fill:#51aee5;fill-opacity:1;fill-rule:evenodd;stroke:none"
         id="path3030"
         inkscape:connector-curvature="0" /><path
         d="m 2399.32,5272.49 c 22.77,2.24 48.08,0.17 73.32,-1.46 27.45,-1.75 54.65,-6.08 81.69,-11.32 32.95,-6.37 65.6,-14.54 98.26,-22.36 32.39,-7.81 59.97,-23.19 81.93,-48.59 17.15,-19.86 25.07,-42.7 24.04,-68.74 -1.41,-33.75 -7.47,-66.75 -17.18,-99.07 -10.39,-34.43 -25.33,-66.86 -43.54,-97.89 -21.75,-37.13 -52.51,-63.95 -91.97,-80.58 -37.23,-15.69 -76.04,-25.19 -116.59,-28.02 -39.65,-2.78 -78.39,2.01 -116.61,11.99 -21.56,5.65 -42.96,11.74 -63.61,20.15 -23.88,9.66 -44.69,23.59 -60.88,44.01 -8.45,10.72 -15.08,22.5 -20.08,35.11 -15.54,38.99 -29.23,78.55 -37.73,119.75 -7.57,36.49 -11.86,73.27 -9.65,110.61 0.81,14 3.21,27.75 7.22,41.2 6.9,22.99 21.79,38.44 44.35,46.38 24.33,8.59 49.35,14.63 74.67,19.3 29.67,5.49 59.62,8.89 92.36,9.53"
         style="fill:#51aee5;fill-opacity:1;fill-rule:evenodd;stroke:none"
         id="path3032"
         inkscape:connector-curvature="0" /><path
         d="m 3033.33,5256.03 c -13.53,-5.23 -27.77,-7.51 -41.9,-10.12 -27.95,-5.19 -56.08,-8.27 -84.62,-7.93 -39.53,0.47 -78.35,6.19 -115.38,20.23 -45.16,17.05 -91.76,27.88 -138.94,36.82 -36.88,6.94 -73.92,12.94 -111.21,17.53 -30.28,3.77 -60.69,7.23 -91.17,8.92 -26.16,1.45 -52.26,3.19 -78.35,4.57 -7.88,0.41 -15.7,0.04 -23.1,0.04 -2.73,3.84 0.48,5.37 1.85,7.13 27.41,35.88 58.8,68.01 93.09,97.28 38.07,32.37 78.81,60.76 122.37,85.18 5.27,2.97 10.37,6.5 16.5,7.75 71.7,23.53 145.73,35.57 220.6,43.26 24.43,2.5 49.02,3.83 73.16,3.79 77.34,-0.22 153.88,-8.03 223.8,-45.31 36.98,-19.68 69.64,-44.92 94.07,-79.84 20.99,-29.87 16.39,-52.83 -14.72,-72.41 -12.75,-7.93 -26.78,-12.8 -40.02,-19.67 -15.17,-7.86 -15.47,-10.63 -2.49,-21.14 11.22,-9.13 11.3,-18.8 -0.46,-28.12 -12.07,-9.6 -26.4,-15.51 -40.31,-21.82 -20.58,-9.37 -41.41,-18.51 -62.77,-26.14"
         style="fill:#f3ef15;fill-opacity:1;fill-rule:evenodd;stroke:none"
         id="path3034"
         inkscape:connector-curvature="0" /><path
         d="m 1346.08,3855.69 c 0.87,-0.97 2,-2.13 3.06,-0.64 3.78,5.38 7.34,10.85 11,16.21 2.95,4.43 6.56,8.16 10.9,11.22 1.34,0.91 3.84,-0.23 4.17,-1.83 0.5,-3.05 0.06,-6.03 -0.55,-9.03 -3.24,-16.61 -6.35,-33.24 -9.32,-49.91 -0.59,-3.39 -0.23,-6.97 -0.29,-10.45 -0.11,-5.23 -0.83,-10.34 -1.55,-15.54 -1.81,-13.4 -1.97,-26.93 0.23,-40.39 0.39,-2.18 1.11,-4.25 1.2,-6.37 0.41,-11.75 1.04,-23.38 2.32,-35.15 2.02,-18.6 4.65,-37.04 8.69,-55.28 6.08,-27.47 16.71,-53.2 30.57,-77.52 8.2,-14.4 17.61,-28.08 29.56,-39.75 5.63,-5.5 11.31,-11 16.66,-16.7 15.3,-16.59 34.13,-28.42 53,-40.18 33.65,-20.94 70.86,-33.08 108.5,-44.53 25.08,-7.57 50.9,-11.08 76.26,-17.1 9.22,-2.13 18.98,-2.13 28.46,-3.27 11.17,-1.37 22.34,-3.04 33.48,-4.49 1.78,-0.24 3.46,-0.62 5.22,-0.62 6.96,-0.08 13.83,-0.35 20.68,-2.25 4.13,-1.1 8.7,-0.28 13.04,-0.49 12.66,-0.46 25.34,1.45 37.82,-2.32 2.39,-0.74 5.17,-0.25 7.83,-0.25 34.07,-0.04 68.2,-0.04 102.28,0 4.79,0 9.58,-0.29 14.27,1.51 4.56,1.81 9.49,0.83 14.24,1.06 12.19,0.53 24.52,-1.52 36.43,2.44 11.88,-1.2 23.23,3.16 35.1,3.05 7.73,-0.07 15.54,1.77 23.16,3.04 23.55,4.06 47.09,8.25 70.07,14.97 20.88,6.1 41.49,12.99 61.84,21.05 21.63,8.55 41.33,20.61 61.14,32.43 8.55,5.12 16.01,12.01 24.12,17.85 11.05,7.94 20.71,17.4 29.81,27.45 15.2,16.77 29.34,34.36 41,53.96 7.13,12.06 13.5,24.42 19.53,37.02 4.37,9.04 8.82,18.1 12.25,27.5 12.11,33.63 21.92,67.94 28.88,102.97 2.68,13.66 3.11,27.71 6.18,41.2 2.19,9.85 1.06,20 4.28,29.65 1.1,3.16 0.49,6.91 0.61,10.41 0.13,4.82 -0.06,9.55 1.58,14.24 0.94,2.81 0.86,5.99 0.99,9.03 0.29,9.54 -0.65,19.16 2.36,28.58 0.89,2.78 0.44,6.12 0.25,9.12 -0.5,7.1 0.9,13.89 2.69,20.63 3.58,13.71 14.04,22.37 28.03,23.31 7.58,0.55 14.69,-0.98 21.66,-3.89 2.37,-0.98 4.23,-0.44 5.79,1.38 12.67,-18.27 26.02,-36.09 37.79,-54.84 25.22,-40.16 40.95,-83.96 46.22,-131.17 10.97,-98.44 -16.87,-184.83 -82.16,-259.12 -20.82,-23.74 -45.09,-43.73 -71.94,-60.6 -57.47,-36.2 -119.72,-60.9 -185.68,-76.38 -42.16,-9.84 -84.91,-15.9 -128.1,-19.22 -39.26,-2.97 -78.47,-5.34 -117.76,-6.88 -28.8,-1.06 -57.62,-1.62 -86.44,-1.41 -32.76,0.28 -65.5,1.27 -98.21,3.96 -85.73,7.24 -169.49,23.4 -249.95,54.62 -42.17,16.32 -82.09,36.74 -117.76,64.85 -55.68,43.88 -91.47,100.15 -106.41,169.53 -7.29,33.92 -10.95,68.12 -9.15,102.8 2.19,42.64 11.19,83.85 26.4,123.7 0.92,2.42 2.45,4.56 3.67,6.83"
         style="fill:#f1cc0a;fill-opacity:1;fill-rule:evenodd;stroke:none"
         id="path3036"
         inkscape:connector-curvature="0" /><path
         d="m 3160.83,4568.75 c -45.86,-1.37 -87.16,13.85 -126,37.24 -19.54,11.72 -39.66,22.12 -61.25,29.57 -25.41,8.81 -51.51,13.36 -78.42,11.52 -21.6,-1.46 -42.21,-6.61 -62.12,-14.89 -16.16,-6.74 -31.44,-15.24 -46.17,-24.72 -18.14,-11.72 -37.84,-19.68 -58.98,-24.37 -60.88,-13.59 -127.88,6.97 -167.88,53.27 -4.05,4.67 -7.77,9.53 -10.65,14.91 -7.49,14.06 -5.6,26.94 5.41,38.36 7.39,7.65 16.47,12.84 25.86,17.65 18.24,9.35 36.63,18.49 54.69,28.13 71.58,38.12 139.2,82.13 201.45,134.11 14.65,12.2 30.74,21.82 49.22,26.54 36.16,9.2 70.2,3.41 98.49,-21.09 63.93,-55.27 135.67,-98.27 209.82,-137.79 21.63,-11.51 43.38,-22.64 64.96,-34.17 7.98,-4.33 15.86,-9.12 23.49,-14.14 6.24,-4.04 11.76,-9.13 16.26,-15.13 8.25,-10.87 9.17,-22.34 2.6,-34.32 -2.97,-5.4 -6.65,-10.28 -10.99,-14.61 -21.39,-21.23 -45.86,-37.7 -74.12,-48.23 -15.31,-5.73 -35.08,-9.66 -55.67,-7.84"
         style="fill:#f14621;fill-opacity:1;fill-rule:evenodd;stroke:none"
         id="path3038"
         inkscape:connector-curvature="0" /><path
         d="m 2288.34,4224.96 c -1.23,1.38 -2.64,2.38 -4.51,2.33 -7.8,-0.17 -15.65,1.07 -23.37,-1.57 -3.2,-1.08 -6.91,-0.76 -10.39,-0.81 -10.49,-0.1 -20.98,-0.01 -31.46,-0.1 -6.53,-0.04 -12.93,-0.25 -19.45,-1.85 -5.79,-1.41 -12.17,-0.53 -18.3,-0.73 -9.1,-0.32 -18.12,0.33 -27.26,-2 -6.16,-1.6 -12.99,-0.51 -19.54,-0.64 -6.09,-0.15 -12.26,0.51 -18.16,-1.87 -1.93,-0.81 -4.29,-0.64 -6.47,-0.69 -10.43,-0.25 -20.97,0.78 -31.15,-2.57 -15.76,1.52 -31.1,-3.65 -46.85,-2.84 -3.46,0.14 -6.93,-0.66 -10.32,-1.2 -2.16,-0.29 -4.35,-1.33 -6.39,-1.13 -11.88,1.1 -23.53,-1.65 -34.99,-3.43 -11.19,-1.68 -22.74,-0.31 -33.53,-4.37 -10.16,1.01 -19.82,-2.58 -29.84,-3.11 -10.31,-0.53 -20.61,-2.63 -30.86,-4.31 -6.88,-1.12 -13.76,-1.41 -20.65,-2.76 -14.85,-2.85 -30.1,-3.85 -45.13,-5.94 -12,-1.72 -24,-3.86 -35.94,-5.88 -13.69,-2.33 -27.38,-4.71 -40.99,-7.26 -17.49,-3.3 -34.96,-6.75 -52.37,-10.4 -20.83,-4.28 -41.78,-8.25 -62.36,-13.55 -18.55,-4.77 -37.44,-7.66 -56.05,-12.05 -8.39,-1.95 -17.48,-1.15 -25.75,-3.43 -14.5,-4.05 -29.69,0 -43.98,-4.78 -16.91,0.54 -33.99,-2.21 -50.85,1.84 -2.9,0.72 -6.09,0.31 -9.13,0.53 -35.31,2.59 -68.81,11.28 -98.16,31.75 -13.68,9.45 -24.8,21.82 -33.03,36.61 -6.9,12.33 -11.24,25.46 -13.76,39.24 -0.42,2.13 -0.45,4.33 -0.45,6.54 -0.04,14.84 -0.72,29.75 0.23,44.52 0.73,11.21 3,22.41 5.65,33.37 6.39,26.69 15.32,52.58 26.37,77.79 10.74,24.42 23.01,48.03 35.11,71.72 7.32,14.33 15.93,28.05 24.65,41.59 5.74,8.83 13.09,16.16 24.14,18.93 3.96,1.05 7.25,1.62 11.31,0.14 2.83,-1.03 6.31,-3.98 9.57,-0.28 8.3,-12.87 14.04,-27.01 20.48,-40.79 11.38,-24.09 22.2,-48.44 33.77,-72.42 14.1,-29.16 30.07,-57.29 50.9,-82.27 6.74,-8.06 13.83,-15.78 21.34,-23.09 14.97,-14.69 14.3,-27.16 1.38,-42.44 -3.65,-4.34 -7.9,-8.15 -11.89,-12.21 -2.14,-2.18 -4.52,-4.14 -6.39,-6.57 -8.14,-10.57 -3.53,-24.13 9.48,-27.75 4.69,-1.3 9.5,-1.35 14.32,-0.81 20.78,2.43 41.64,4.79 62.44,7.41 30.8,3.89 61.48,8.17 92.32,11.9 27.71,3.37 55.53,6.28 83.33,9.18 13.05,1.38 26.05,2.57 39.14,3.3 49.77,2.81 99.43,5.15 149.21,6.58 89.63,2.53 179.2,0.77 268.83,1.52 7.9,0.05 15.74,-0.45 23.37,-2.4 11.37,-2.92 14.9,-9.52 11.08,-20.58 -1.99,-5.77 -4.32,-11.4 -8.7,-15.91"
         style="fill:#f1cc0a;fill-opacity:1;fill-rule:evenodd;stroke:none"
         id="path3040"
         inkscape:connector-curvature="0" /><path
         d="m 3033.33,5256.03 c 10.51,7.14 21.88,12.68 33.66,17.37 18.97,7.65 37.5,16.32 55.69,25.73 4.27,2.21 8.23,4.95 12.29,7.58 1.37,0.96 2.64,2.21 3.79,3.5 5.82,6.87 4.88,14 -2.74,18.67 -4.49,2.7 -9.3,4.73 -12.8,8.84 -3.22,3.71 -3.3,5.48 -0.09,9 2.66,2.94 5.64,5.42 9.31,7.06 7.54,3.39 14.89,7.09 22.5,10.39 13.99,6.03 27.8,12.79 38.54,24.13 9.78,10.39 13.35,22.18 8.01,36.02 -2.5,6.54 -5.33,12.74 -9.83,18.3 -7.64,9.49 -14.28,19.65 -23.14,28.27 -16.24,15.95 -34.35,29.44 -53.4,41.72 -11.76,7.6 -24.2,13.8 -37.22,19.01 -8.48,3.38 -16.65,7.36 -25.44,10.3 -22.65,7.66 -45.83,13.54 -69.43,17.37 -9.75,1.57 -19.83,2.52 -29.76,3.79 -16.44,2.15 -32.94,1.44 -49.42,2.5 -8.25,0.5 -16.34,2.94 -24.66,2.28 -1.75,-0.14 -3.58,0.3 -5.2,-0.14 -14.64,-4.03 -29.51,-1.94 -44.34,-2.44 -6.46,-0.22 -13.04,0.54 -19.28,-2.13 -1.25,-0.45 -2.61,-0.45 -3.89,-0.42 -16.25,0.56 -32.06,-2.19 -47.92,-5.04 -6.8,-1.18 -13.77,-1.33 -20.61,-2.48 -14.56,-2.42 -29.03,-5.58 -43.56,-7.67 -18.97,-2.75 -37.47,-7.65 -56.16,-11.52 -15.31,-3.16 -30.35,-7.44 -45.49,-11.49 -3.46,-0.92 -6.84,-1.32 -10.27,-1.1 1.65,1.29 3.28,2.87 5.17,3.78 55.18,27.16 113.04,46.09 173.64,56.81 34.08,6.07 68.22,9.58 102.8,10.77 116,3.98 226.84,-17.34 332.23,-66.04 85.53,-39.49 158.33,-95.48 217.52,-168.91 8.57,-10.53 16.35,-21.66 24.28,-32.63 2.74,-3.78 1.85,-5.64 -2.43,-5.77 -4.83,-0.11 -9.61,0.09 -14.45,-0.17 -38.82,-1.7 -77.51,-5.01 -116.21,-9.65 -79.49,-9.58 -157.49,-26.58 -234.83,-46.92 -12.2,-3.19 -24.19,-7.41 -36.86,-8.67"
         style="fill:#f3de06;fill-opacity:1;fill-rule:evenodd;stroke:none"
         id="path3042"
         inkscape:connector-curvature="0" /><path
         d="m 2477.57,4670.49 c -2.12,2.94 -5.07,3.15 -8.21,2.43 -14.64,-3.36 -29.29,-3.16 -43.96,-0.21 -3.37,0.66 -6.94,0.52 -10.42,0.66 -13.44,0.55 -27.02,-1.47 -40.26,2.48 -1.23,0.39 -2.63,0.15 -3.92,0.14 -13.56,-0.36 -26.68,2.5 -40.04,4.49 -8.93,1.35 -18.01,2.1 -27.04,3.29 -13.34,1.79 -26.46,4.54 -39.52,7.74 -6.24,9.95 -9.28,21.22 -13.11,32.19 -7.37,21.18 -13.64,42.72 -17.11,64.95 18.05,0.93 35.3,-3.89 52.69,-7.49 2.12,-0.6 4.27,-0.92 6.24,-1.76 31.32,-12.97 64.13,-19.76 97.56,-24.5 20.33,-2.87 40.81,-4.54 61.3,-4.75 45.23,-0.42 89.71,5.52 133.06,18.6 2.51,0.77 5.1,1.15 7.61,1.72 1.13,1.14 2.27,1.14 3.33,-0.03 -2.7,-4.22 -7.53,-5.6 -11.49,-7.96 -18.01,-10.54 -36.15,-20.8 -54.23,-31.19 -12.44,-7.19 -24.36,-15.12 -34.4,-25.58 -8.64,-8.94 -15.21,-18.92 -16.67,-31.66 -0.14,-1.18 -0.94,-2.36 -1.41,-3.56"
         style="fill:#f3de06;fill-opacity:1;fill-rule:evenodd;stroke:none"
         id="path3044"
         inkscape:connector-curvature="0" /><path
         d="m 1157.7,4064.84 c 0.78,-1.02 2.12,-1.99 2.29,-3.05 5.11,-38.85 14.33,-76.79 24.08,-114.6 8.93,-34.73 21.56,-68.07 39.06,-99.48 6.05,-10.82 14.38,-19.74 23.79,-27.57 5.97,-5.03 12.98,-8.77 21.07,-9.68 -1.1,-6.85 -1.88,-13.76 -3.28,-20.54 -1.45,-7.31 -2.07,-14.65 -2.36,-22.03 -1.39,-37.86 -2.26,-75.74 -1.25,-113.59 0.87,-32.22 4.71,-64.2 12.56,-95.56 0.84,-2.98 1.9,-6 -3.2,-5.5 -16.97,12.6 -28.5,29.15 -36.28,48.64 -12.18,30.37 -22.15,61.51 -31.58,92.79 -13.99,46.35 -25.3,93.44 -33.46,141.11 -5.39,31.83 -9.38,63.83 -11.92,96.04 -3.13,39.22 -2.91,78.4 -1.66,117.66 0.16,5.1 -0.68,10.52 2.14,15.36"
         style="fill:#f1c90a;fill-opacity:1;fill-rule:evenodd;stroke:none"
         id="path3046"
         inkscape:connector-curvature="0" /><path
         d="m 2729.22,4851.72 c 54.06,59.61 89.39,129.81 116.17,204.84 5.57,15.61 11.83,30.99 17.16,46.72 5.63,16.55 17.4,24.91 34.12,25.95 13.51,0.79 27.09,0.62 40.57,-0.44 14.29,-1.14 23.44,-8.35 28.1,-21.75 5.02,-14.44 10.52,-28.7 15.3,-43.17 18.05,-54.57 42.48,-106.19 73.38,-154.61 7.55,-11.75 15.95,-22.93 23.88,-34.43 0.05,-0.57 0.05,-1.14 0.05,-1.72 -0.44,0.02 -0.99,-0.11 -1.29,0.1 -17.54,10.4 -35.01,20.86 -51.66,32.88 -9.92,10.6 -16.18,23.75 -23.05,36.32 -10.52,19.33 -23.57,36.82 -37.75,53.4 -13.97,16.32 -31.76,27.44 -52.83,32.31 -31.58,7.26 -53.77,-8.66 -72.63,-31.31 -23.11,-27.73 -40.13,-59.25 -55.31,-91.76 -3.85,-8.28 -7.77,-16.54 -11.59,-24.85 -13.12,-11.98 -27.38,-22.52 -42.72,-31.37 -0.84,0.7 -1.09,1.34 -0.77,2 0.31,0.62 0.58,0.89 0.87,0.89"
         style="fill:#f3de06;fill-opacity:1;fill-rule:evenodd;stroke:none"
         id="path3048"
         inkscape:connector-curvature="0" /><path
         d="m 2771.84,4880.2 c -1.82,1.05 -2.16,2.56 -1.31,4.36 7.61,16.19 14.58,32.7 23.05,48.39 9.08,16.83 18.17,33.72 29.61,49.16 11.44,15.37 23.11,30.57 39.6,41.08 16.86,10.75 34.95,12.71 53.77,6.89 22.68,-6.97 41.29,-19.65 55.63,-39.05 6.41,-8.69 13.84,-16.79 19.62,-25.94 7.33,-11.33 14.2,-22.97 20.53,-34.84 4.29,-7.99 10.78,-14.93 12.66,-24.16 -13.64,6.72 -26.04,15.69 -38.9,23.66 -10.01,6.12 -19.77,12.68 -30.44,17.62 -9.99,4.58 -20.08,8.15 -31.06,9.42 -17.84,2.13 -34.67,-1.44 -50.67,-9.05 -6.32,-2.98 -12.44,-6.38 -18.31,-9.99 -25.72,-15.62 -50.96,-31.83 -74.23,-50.88 -2.97,-2.47 -6.42,-4.46 -9.55,-6.67"
         style="fill:#f3ef15;fill-opacity:1;fill-rule:evenodd;stroke:none"
         id="path3050"
         inkscape:connector-curvature="0" /><path
         d="m 2773.21,4540.27 c 32.84,22.33 67,38.87 105.98,44.23 40.81,5.6 78.97,-3.02 115.67,-20.2 8.7,-4.08 17.03,-8.85 25.49,-13.33 9.91,-5.23 19.84,-10.45 29.68,-15.68 -0.75,-2.91 -3.12,-3.17 -5.11,-3.85 -17.39,-5.9 -35.26,-9.93 -53.4,-12.6 -19,-2.78 -38.09,-5.3 -57.09,-7.3 -9.15,-0.94 -18.39,-0.81 -27.55,-0.36 -44.78,2.22 -88.15,11.36 -130.39,26.29 -0.73,0.25 -1.28,1.06 -3.28,2.8"
         style="fill:#f14621;fill-opacity:1;fill-rule:evenodd;stroke:none"
         id="path3052"
         inkscape:connector-curvature="0" /><path
         d="m 2286.67,4781.16 c -18.07,-1.08 -35.6,1.63 -52.69,7.49 -1.26,6.21 -2.48,12.41 -3.72,18.61 -0.84,3.07 -1.61,6.04 3.42,5.22 14.99,-10.86 30.76,-20.35 47.61,-28.03 1.89,-0.88 3.62,-2.21 5.38,-3.29"
         style="fill:#eded12;fill-opacity:1;fill-rule:evenodd;stroke:none"
         id="path3054"
         inkscape:connector-curvature="0" /><path
         d="m 3733.62,5203.14 c -4.81,0.01 -12.13,1.16 -19.22,3.45 -1.3,0.45 -2.91,2.34 -3.04,3.66 -0.09,1.45 1.04,3.57 2.27,4.42 2.06,1.48 4.67,2.49 7.09,3.14 15.49,4.09 30.29,1.93 44.48,-4.94 0.69,-0.29 1.23,-1.31 1.39,-2.05 0.48,-1.77 -1.15,-1.94 -2.23,-2.39 -8.89,-3.94 -18.31,-5.55 -30.74,-5.29"
         style="fill:#f8f9f9;fill-opacity:1;fill-rule:evenodd;stroke:none"
         id="path3056"
         inkscape:connector-curvature="0" /><path
         d="m 2112.2,5234 c 5.95,-0.76 13.3,-1.54 19.59,-5.97 2.27,-1.61 2.6,-4.05 0.41,-5.09 -15.23,-7.33 -30.7,-7.82 -46.27,-0.86 -2.25,1.01 -2.01,3.47 0.29,4.94 6.8,4.41 16.46,7.13 25.98,6.98"
         style="fill:#f8fafa;fill-opacity:1;fill-rule:evenodd;stroke:none"
         id="path3058"
         inkscape:connector-curvature="0" /><path
         d="m 3275.12,4752.42 c -2.05,-0.78 -4.59,-0.59 -5.79,-2.97 -3.37,0.89 -6.24,2.43 -8.17,5.39 2.08,1.42 4.2,1.31 6.34,0.13 2.73,-0.27 5.57,-0.2 7.62,-2.55"
         style="fill:#b9b61a;fill-opacity:1;fill-rule:evenodd;stroke:none"
         id="path3060"
         inkscape:connector-curvature="0" /><path
         d="m 1270.46,3553.24 c 2.75,0.88 2.43,3.51 3.2,5.5 1.81,-1.45 2.38,-3.51 2.42,-5.65 0.04,-1.12 -0.66,-2.25 -1,-3.35 -1.15,0.46 -2.35,0.76 -3.36,1.44 -0.6,0.38 -0.86,1.36 -1.26,2.06"
         style="fill:#a06d1e;fill-opacity:1;fill-rule:evenodd;stroke:none"
         id="path3062"
         inkscape:connector-curvature="0" /><path
         d="m 2233.68,4812.48 c -2.84,-0.62 -2.45,-3.36 -3.42,-5.22 -0.54,1.06 -1.27,2.06 -1.61,3.21 -0.4,1.56 -0.59,3.53 1.22,4.19 1.71,0.69 3.07,-0.56 3.81,-2.18"
         style="fill:#64a230;fill-opacity:1;fill-rule:evenodd;stroke:none"
         id="path3064"
         inkscape:connector-curvature="0" /><path
         d="m 2597.85,4773.18 c 1.08,1.46 2.54,2.43 4.4,2.4 0.74,0 1.48,-0.56 2.25,-0.87 -0.3,-0.72 -0.45,-1.72 -1.02,-2.1 -1.06,-0.7 -2.3,-1.02 -3.47,-1.52 -1,0.38 -1.76,1.07 -2.16,2.09"
         style="fill:#406026;fill-opacity:1;fill-rule:evenodd;stroke:none"
         id="path3066"
         inkscape:connector-curvature="0" /><path
         d="m 1462.69,3341.32 c -1.32,-1.14 -2.64,-2.26 -4.01,-3.41 -0.64,0.5 -1.59,0.86 -1.82,1.48 -0.41,1.04 -0.93,2.73 -0.4,3.3 0.59,0.69 2.27,0.87 3.33,0.64 1.05,-0.26 1.94,-1.3 2.9,-2.01"
         style="fill:#809827;fill-opacity:1;fill-rule:evenodd;stroke:none"
         id="path3068"
         inkscape:connector-curvature="0" /><path
         d="m 2597.85,4773.18 c 0.69,-0.66 1.42,-1.37 2.16,-2.09 -1.36,-0.2 -2.83,-0.42 -4.24,-0.65 -1.06,0 -2.2,0.03 -3.33,0.03 1.25,2.14 3.3,2.47 5.41,2.71"
         style="fill:#87ce26;fill-opacity:1;fill-rule:evenodd;stroke:none"
         id="path3070"
         inkscape:connector-curvature="0" /><path
         d="m 3267.5,4754.97 c -2.14,-0.05 -4.18,-0.09 -6.34,-0.13 -1.52,0.54 -1.69,1.68 -0.31,2.14 2.52,0.81 4.66,-0.54 6.65,-2.01"
         style="fill:#62a531;fill-opacity:1;fill-rule:evenodd;stroke:none"
         id="path3072"
         inkscape:connector-curvature="0" /><path
         d="m 2800.21,4783.4 c -5.8,-0.02 -11.36,0.84 -16.31,3.86 -5.84,3.52 -7.95,9.29 -5.88,15.73 1.53,4.62 3.94,8.84 7.36,12.22 16.68,16.36 36.67,24.61 60.16,23.54 2.61,-0.13 5.25,-0.7 7.63,-1.62 9.08,-3.45 12.2,-11.06 8.48,-19.98 -1.91,-4.52 -4.73,-8.45 -8.32,-11.71 -15.05,-13.75 -32.87,-20.88 -53.12,-22.04"
         style="fill:#110f0d;fill-opacity:1;fill-rule:evenodd;stroke:none"
         id="path3074"
         inkscape:connector-curvature="0" /><path
         d="m 2967.65,4839.08 c 20.66,-1.6 38.74,-8.98 53.46,-23.84 4.73,-4.77 7.94,-10.29 7.72,-17.4 -0.16,-4.83 -2.29,-8.34 -6.34,-10.68 -3.76,-2.21 -7.93,-3.47 -12.38,-3.54 -23.49,-0.34 -43.24,8.19 -59.64,24.77 -4.05,4.1 -6.65,9.04 -6.88,15.09 -0.22,5.32 1.91,9.23 6.31,11.98 5.43,3.38 11.54,3.69 17.75,3.62"
         style="fill:#110f0d;fill-opacity:1;fill-rule:evenodd;stroke:none"
         id="path3076"
         inkscape:connector-curvature="0" /><path
         d="m 3322.83,5008.82 c 0,-34.61 -28.09,-62.64 -62.65,-62.64 -34.58,0 -62.67,28.03 -62.67,62.64 0,34.59 28.09,62.62 62.67,62.62 34.56,0 62.65,-28.03 62.65,-62.62"
         style="fill:#ffffff;fill-opacity:1;fill-rule:nonzero;stroke:none"
         id="path3078"
         inkscape:connector-curvature="0" /><path
         d="m 3260.18,5042.15 c -18.4,0 -33.36,-14.96 -33.36,-33.33 0,-18.4 14.96,-33.36 33.36,-33.36 18.37,0 33.31,14.96 33.31,33.36 0,18.37 -14.94,33.33 -33.31,33.33 z m 0,-125.28 c -50.71,0 -91.95,41.25 -91.95,91.95 0,50.66 41.24,91.92 91.95,91.92 50.7,0 91.92,-41.26 91.92,-91.92 0,-50.7 -41.22,-91.95 -91.92,-91.95"
         style="fill:#100f0d;fill-opacity:1;fill-rule:nonzero;stroke:none"
         id="path3080"
         inkscape:connector-curvature="0" /><path
         d="m 2615.95,5008.82 c 0,-34.61 -28.08,-62.64 -62.65,-62.64 -34.56,0 -62.66,28.03 -62.66,62.64 0,34.59 28.1,62.62 62.66,62.62 34.57,0 62.65,-28.03 62.65,-62.62"
         style="fill:#ffffff;fill-opacity:1;fill-rule:nonzero;stroke:none"
         id="path3082"
         inkscape:connector-curvature="0" /><path
         d="m 2553.3,5042.15 c -18.4,0 -33.34,-14.96 -33.34,-33.33 0,-18.4 14.94,-33.36 33.34,-33.36 18.38,0 33.36,14.96 33.36,33.36 0,18.37 -14.98,33.33 -33.36,33.33 z m 0,-125.28 c -50.69,0 -91.95,41.25 -91.95,91.95 0,50.66 41.26,91.92 91.95,91.92 50.72,0 91.94,-41.26 91.94,-91.92 0,-50.7 -41.22,-91.95 -91.94,-91.95"
         style="fill:#100f0d;fill-opacity:1;fill-rule:nonzero;stroke:none"
         id="path3084"
         inkscape:connector-curvature="0" /><path
         d="m 4139.23,3929.41 c 0,23.57 0,47.04 0,70.59 4.96,9.12 1.57,19.05 2.61,28.56 0.61,60.75 11.54,120.19 24.24,179.41 16.75,78.07 41.83,153.62 73.73,226.76 14.98,34.37 38.24,64.21 60.38,94.34 33.71,45.88 72.66,86.56 120.27,118.49 14.5,9.74 29.3,18.86 45.23,25.92 28.89,12.9 48.25,5.79 59.04,-23.77 36.18,-99.34 90.16,-189.04 147.56,-276.95 7.83,-12.02 16.33,-23.49 27.83,-32.64 27.99,-22.36 60.31,-27.52 94.67,-24.45 60.71,5.34 120.42,18.21 181.34,21.54 42.94,2.36 85.85,4.71 128.89,5.95 80.46,2.35 160.92,2.45 241.37,2.48 12.64,0.03 25.23,1.86 37.39,5.19 17.77,4.85 25.73,15.92 26.19,34.29 0.26,14.7 -3.86,28.29 -10,41.44 -14.11,30.12 -32.33,57.67 -52.14,84.24 -45.46,61.07 -76.34,129.47 -99.69,201.47 -20.4,62.87 -30.28,127.67 -34.11,193.49 -0.74,12.02 -6.23,22.61 -10.11,33.59 -19.16,54.64 -37.59,109.48 -54.78,164.73 -7.59,24.16 -15.1,48.34 -37.12,64.41 -6.01,4.45 -8.24,12.13 -10.13,19.36 -6.28,24.01 -12.57,47.99 -16.94,72.44 -4.9,27.72 4.55,42.29 32.17,48.24 51.04,11.18 102.68,18.39 154.88,21.66 13.41,0.89 26.78,2.97 40.32,2.46 8.23,-0.36 12.38,4.73 16.27,10.91 27.27,42.64 57.96,82.61 93.94,118.39 40.07,39.94 85.5,72.65 134.96,99.55 86.74,47.09 179.38,75.78 277.18,87.71 12.46,1.53 25.1,1.66 37.65,2.28 2.77,0 5.52,0 8.32,0 3.38,0 6.77,0 10.12,0 4.54,0.63 9.32,-1.37 13.6,1.38 22.68,0 45.25,0 67.91,0 4.22,-2.75 9,-0.73 13.48,-1.38 3.45,0 6.76,0 10.2,0 3.39,0 6.83,0 10.23,0 63.59,-0.94 125.15,-13.73 185.88,-31.3 96.59,-28 184.41,-72.81 260.23,-139.29 44.66,-39.21 83.8,-83.52 114.37,-134.86 6.75,-11.31 14.2,-16.11 27.88,-16.6 80.89,-3.01 160.96,-14.44 240.25,-30.65 7.67,-1.54 15.15,-3.89 22.61,-6.12 5.65,-1.59 10.71,-4.08 11.7,-10.81 0.43,-2.51 -0.72,-5.39 1.44,-7.64 0,-2.62 0,-5.24 0,-7.85 -2.03,-1.99 -1.18,-4.64 -1.37,-7.06 0,-3.27 0,-6.47 0,-9.77 0.71,-27.46 -8.05,-53.16 -14.84,-79.12 -1.71,-6.63 -6.55,-11.2 -12.04,-15.06 -15.54,-10.85 -26.11,-25.55 -32.22,-43.26 -16.13,-47.33 -31.05,-95.1 -47.49,-142.32 -9.16,-26.28 -17.6,-52.84 -30.86,-77.52 -12.46,-23.17 -28.01,-44.01 -46.68,-62.57 -5.9,-5.86 -8.94,-11.98 -9.83,-20.37 -8.07,-79.96 -24.53,-158.07 -53.33,-233.36 -19.7,-51.44 -45.81,-99.6 -75.19,-145.91 -26.28,-41.27 -38.9,-87.02 -47.58,-134.37 -2.79,-14.52 3.63,-26.41 10.71,-37.95 14.71,-23.76 31.69,-45.81 50.39,-66.49 59,-65.11 106.22,-137.78 139.52,-219.06 25.06,-61.2 38.12,-125.49 46.56,-190.97 5.78,-44.99 6.54,-90.26 4.65,-135.38 -3.41,-85.07 -20.96,-167.25 -57.3,-244.8 -19.59,-41.97 -42.47,-81.83 -71.64,-117.94 -5.96,-7.39 -4.09,-10.95 3.62,-14.61 28.76,-13.76 55.03,-31.48 79.8,-51.54 14.07,-11.4 25.67,-24.88 35.25,-39.97 26.67,-42.2 20.13,-90.12 -16.71,-128.85 -34.59,-36.27 -77.01,-60.9 -121.93,-81.34 -96,-43.67 -197.14,-70.91 -299.91,-92.8 -88.57,-18.96 -177.91,-33.11 -267.75,-43.85 -58.2,-6.9 -116.59,-12.56 -175.11,-17.04 -47.65,-3.56 -95.36,-6.04 -143.05,-8.92 -28.46,-0.29 -57.01,0.27 -85.46,-1.39 -8.75,0 -17.37,0 -26.1,0 -11.48,-0.74 -23.06,1.54 -34.52,-1.38 -52.18,0 -104.48,0 -156.62,0 -11.37,2.92 -22.94,0.64 -34.37,1.38 -8.71,0 -17.36,0 -26.01,0 -28.52,1.88 -57.06,0.97 -85.6,1.39 -23.29,3.11 -46.76,2.16 -70.2,3.78 -52.82,3.58 -105.63,7.64 -158.38,12.67 -77.49,7.4 -154.69,16.84 -231.46,29.69 -135.36,22.62 -269.12,51.6 -396.83,103.57 -44.92,18.3 -87.58,40.62 -125.81,70.85 -18.22,14.35 -33.99,30.97 -45.37,51.53 -17.42,31.53 -17.36,63.16 -0.12,94.6 9.44,17.28 22.21,32.02 37.35,44.77 34.5,29.33 73.75,50.65 114.79,69.08 13.3,6.01 13.62,6.91 3.08,17.46 -87.97,88.53 -150.2,193.06 -193.02,309.76 -28.87,78.83 -46.75,160.19 -57.29,243.3 -1.89,15 -3.21,30.26 -2.43,45.45 -1.04,9.61 2.35,19.57 -2.61,28.73"
         style="fill:#100f0d;fill-opacity:1;fill-rule:nonzero;stroke:none"
         id="path3086"
         inkscape:connector-curvature="0" /><path
         d="m 6870.54,5250.72 -1.01,-0.27 -1.29,0.11 c -0.81,3.46 -0.36,6.88 0.21,10.32 0.49,1.44 1.16,1.5 2.09,0.3 0,-3.47 0,-6.96 0,-10.46"
         style="fill:#a7b1ae;fill-opacity:1;fill-rule:evenodd;stroke:none"
         id="path3088"
         inkscape:connector-curvature="0" /><path
         d="m 6868.38,5279.87 c 0.84,0.62 1.56,0.53 2.16,-0.39 0,-1.77 0,-3.5 0,-5.26 -2.88,1.11 -2.88,3.23 -2.16,5.65"
         style="fill:#87787b;fill-opacity:1;fill-rule:evenodd;stroke:none"
         id="path3090"
         inkscape:connector-curvature="0" /><path
         d="m 6870.54,5261.18 -1.01,-0.39 -1.08,0.09 c -0.47,2.32 -0.93,4.52 2.09,5.49 0,-1.7 0,-3.43 0,-5.19"
         style="fill:#5e6c6d;fill-opacity:1;fill-rule:evenodd;stroke:none"
         id="path3092"
         inkscape:connector-curvature="0" /><path
         d="m 5533.86,4678.61 c 0.81,-18.76 8.86,-34.9 18.96,-50.13 11.73,-17.78 26.39,-32.98 42.9,-46.38 2.93,-2.41 6.64,-4.08 8.63,-7.58 6.96,-9.01 10.34,-19.99 16.61,-29.48 29.51,-44.92 69.18,-77.6 118.23,-99.13 46.73,-20.53 95.88,-31.18 146.53,-35.24 86.38,-6.89 172.03,-1.93 256.99,15.4 38.75,7.9 77.74,6.6 116.86,3.69 16.1,-1.21 32.08,-2.48 47.71,-6.67 5.1,-1.37 10.11,-2.84 14.89,-4.97 23.53,-10.26 27.73,-28.13 10.82,-47.57 -13.89,-16.15 -31.65,-28.37 -46.3,-43.96 -9.92,-10.55 -18.69,-21.86 -25.52,-34.54 -15.34,-28.5 -10.5,-60.42 11.02,-84.44 63.45,-70.94 114.04,-150.39 153.96,-236.57 27.21,-58.7 47.85,-119.76 54.66,-184.41 12.41,-117.4 -11.91,-225.1 -88.69,-317.54 -39.96,-48.05 -89.28,-85 -144.15,-114.63 -92.84,-50.24 -193,-76.09 -296.56,-91.43 -50.79,-7.57 -101.84,-12.27 -153.34,-10.64 -19.59,0.67 -38.88,4.16 -57.32,11.39 -34.11,13.47 -47.47,39.93 -37.76,75.29 5.55,20.22 14.47,39.26 25.52,57 32.52,52.18 49.17,108.8 52.65,170.17 5.36,94.79 -18.04,181.57 -69,261.4 -3.72,5.92 -7.98,11.26 -13.43,15.49 -4.72,11.74 -9.16,23.47 -14.04,35.1 -7.85,18.39 -16.48,36.41 -27,53.41 -15.81,25.55 -36.06,46.58 -62.84,60.97 -11.53,6.24 -23.82,10.75 -36.25,14.54 -17.11,5.24 -32.42,-9.09 -29.34,-26.9 1.05,-5.99 3.13,-11.69 6.15,-17.09 2.29,-4.16 4.27,-8.46 6.42,-12.71 -1.29,-7.29 -6.5,-4.12 -10.15,-3.46 -30.55,4.92 -42.15,-4.97 -44.26,-35.98 -4.24,-65.15 -10.45,-130.03 -27.84,-193.26 -18.98,-68.99 -48.16,-132.35 -100.39,-183.04 -34.88,-33.88 -76.33,-57.44 -121.54,-74.42 -54.13,-20.48 -110.54,-30.31 -167.9,-35.93 -56.37,-5.42 -112.89,-6.74 -169.3,-4.7 -89.74,3.29 -178.69,12.05 -264.31,42.16 -60.9,21.36 -113.99,53.87 -154.12,105.03 -34.89,44.43 -50.32,96.65 -56.45,152.11 -2.2,19.44 -3.86,38.95 -4.85,58.43 -1.57,31.34 2.82,62.41 8.75,93.23 0.96,4.97 2.56,9.87 2.05,17.09 -7.59,-6.08 -10.73,-13.39 -15.66,-19.12 -3.62,-4.27 -3.77,-4.09 -8.34,-1.08 1.94,8.57 6.4,15.96 10.32,23.64 2.55,5.02 5.3,9.99 7.2,15.29 4.19,11.69 0.65,20.02 -10.4,25.9 -10.26,5.4 -19.91,4.65 -29.02,-2.77 -6.46,-5.25 -11.36,-11.8 -15.79,-18.79 -15.97,-25.43 -28.98,-52.15 -37.31,-81.07 -0.76,-2.45 -1.83,-4.81 -2.71,-7.23 -7.06,-4.25 -12.68,0.2 -17.92,3.62 -14.04,9.22 -24.24,21.98 -32.34,36.7 -23.44,42.75 -36.28,89.11 -46.76,136.22 -5.6,25.35 -12.61,50.41 -12.77,76.69 -1.25,15.27 1.55,30.33 3.39,45.36 5.76,45.72 15.43,90.59 29,134.71 23.81,77.21 58.78,149.2 103.22,216.59 19.61,29.77 40.65,58.53 63.38,85.92 4.78,5.68 9.98,10.91 15.18,16.11 3.66,3.76 7.78,7.02 12.65,9.11 7.73,3.3 15.26,3.01 21.92,-2.62 2.67,-2.22 5.17,-4.7 7.29,-7.38 7.8,-9.93 14.31,-20.65 18.91,-32.45 0.4,-5.13 -3.57,-4.45 -6.12,-3.95 -18.15,3.72 -28.65,-6.7 -37.63,-19.91 -7.3,-10.81 -13.69,-22.24 -19.88,-33.72 -29.79,-55.76 -58.92,-111.99 -67.33,-175.65 -3.92,-29.6 -5.69,-59.93 7.78,-88.46 14.33,-30.52 38.49,-50.2 69.53,-61.27 40.78,-14.45 82.95,-17.38 126.02,-14.94 76.11,4.51 148.62,27.65 223.03,40.95 92.97,16.6 186.36,29.67 280.25,39.09 59.25,5.91 118.59,9.8 177.99,13.52 26.41,1.67 53.02,-0.16 79.39,4.05 5.82,0.92 14.12,3.63 17.53,-5.65 -2.42,-6.67 -7.3,-11.7 -11.33,-17.35 -2.96,-4.25 -6.29,-8.4 -8.52,-13.01 -3.11,-6.37 -2.54,-12.87 2.69,-18.09 4.82,-4.85 10.51,-7.6 17.63,-5.26 5.06,1.55 9.67,3.88 13.92,6.94 26.49,19.06 52.57,38.53 75.1,62.39 18.34,19.35 34.11,40.5 46.14,64.34 24.81,49.29 23.93,98.69 -1,147.59 -19.91,38.78 -44.15,74.7 -74.21,106.59 -33.34,35.33 -60.25,75.13 -80.52,119.31 -1.58,3.5 -3.84,6.9 -3.95,10.96 4.5,3.06 9.27,1.66 13.9,0.74 52.45,-10.59 105.65,-13.76 158.88,-17.28 9.14,-0.6 18.28,-0.17 27.37,0.75 4.63,0.42 10.67,2.75 12.24,-5.13"
         style="fill:#ffffff;fill-opacity:1;fill-rule:evenodd;stroke:none"
         id="path3094"
         inkscape:connector-curvature="0" /><path
         d="m 5698.73,3843.13 c 1.24,-0.28 2.6,-1.04 3.64,-0.78 1.33,0.3 2.1,3.24 3.94,0.36 8.56,-13.57 18.76,-26.11 25.56,-40.81 7.12,-15.33 15.49,-30.09 21.9,-45.85 8.37,-20.53 14.58,-41.73 19.93,-63.18 3.73,-15.13 6.37,-30.43 8.5,-45.88 1.3,-9.53 1.89,-18.95 2.08,-28.45 0.09,-2.61 -0.13,-5.34 0.51,-7.8 3.13,-12.84 3.13,-25.74 0.07,-38.58 -0.49,-2.09 -0.49,-4.34 -0.58,-6.51 -0.42,-43.52 -11.49,-84.79 -27.83,-124.69 -6.62,-16.09 -15.7,-30.99 -24.58,-45.98 -11.71,-19.77 -21.73,-40.46 -27.17,-63.11 -5.22,-21.6 3.67,-46.4 21.77,-56.89 11.44,-6.66 23.24,-11.49 36.05,-14.02 8.09,-1.58 16.15,-3.23 24.19,-4.64 2.93,-0.49 6.08,-0.49 9.07,-0.49 18.3,-0.03 36.58,-0.03 54.85,-0.03 4.37,0 8.65,-0.13 12.87,1.49 1.58,0.67 3.46,1.06 5.09,0.92 14.37,-1.37 28.46,2.16 42.77,2.95 10.27,0.63 20.47,2.75 30.73,4.17 8.59,1.18 17.16,2.27 25.65,3.57 10.66,1.66 21.46,3.24 31.96,5.4 24.98,5.33 49.94,10.28 74.71,16.74 25.59,6.68 50.65,15.25 75.76,23.65 20.65,6.78 40.61,15.23 60.01,24.83 9.33,4.57 18.78,8.9 28.05,13.59 23.34,11.87 45.05,26.18 66.56,40.82 15.77,10.76 30.98,22.35 44.26,36.18 3.33,3.41 6.59,6.74 10.83,9.26 2.93,1.77 5.8,4.26 7.47,7.13 3.72,6.1 8.82,10.82 13.71,15.67 9.28,9.18 17.21,19.51 24.72,30.11 11.95,16.51 22.68,33.8 31.95,52.02 13.69,26.79 23.61,54.96 30.56,84.22 2.84,11.68 6.3,23.47 7.22,35.47 0.98,12.05 4.26,23.86 3.43,36.17 -0.45,6.9 0.43,13.73 1.72,20.69 1.71,9.29 1.71,18.99 -0.44,28.44 -0.75,2.94 -1.28,5.97 -1.28,8.95 0.38,32.38 -6.76,63.56 -14.15,94.78 -7.6,32.17 -19.05,63.05 -31.44,93.6 -10.93,27.03 -23.99,53.14 -37.93,78.66 -10.9,19.74 -22.98,38.83 -34.69,58.12 -20.06,33.06 -43.78,63.49 -66.91,94.31 -7.13,9.58 -14.71,19.31 -23.93,27.41 -7.29,6.41 -12.2,14.61 -16.24,23.4 -3.02,6.75 -4.7,13.72 -4.81,21.36 -0.05,12.27 0.62,24.13 5.18,35.82 3.28,8.21 8.07,15.37 12.78,22.55 4.93,7.59 11.21,14.31 17.45,20.98 13.57,14.72 30.08,26.31 43.83,40.82 4.03,4.15 7.35,8.5 9.72,13.7 4.77,10.35 2.87,18.75 -6.21,25.19 -4.24,2.88 -8.56,5.6 -13.79,7.26 -17,5.58 -34.11,9.34 -52.16,9.41 -1.75,0 -3.55,-0.3 -5.16,0.1 -17.61,4.37 -35.42,1.79 -53.23,2.48 -3.82,0.16 -7.86,-0.19 -11.8,0.06 -18.75,1.24 -37.05,-2.75 -55.29,-6.3 -13.93,-2.72 -28.01,-5.2 -42.14,-7.3 -8.44,-1.27 -17.34,-0.8 -25.5,-3.95 -1.24,-0.45 -2.62,-0.66 -3.89,-0.66 -7.82,0.07 -15.65,-0.02 -23.17,-2.57 -16.92,1.38 -33.57,-3.33 -50.6,-2.94 -26.95,0.58 -53.97,0.17 -80.98,0.2 -7.74,0.03 -15.6,-0.82 -23.12,2.15 -1.15,0.42 -2.68,0.33 -3.88,0.4 -26.06,0.94 -51.41,6.33 -76.81,11.72 -24.75,5.17 -48.45,13.47 -71.63,23.22 -20.88,8.78 -40.09,20.52 -58.4,33.98 -17.28,12.74 -32.3,28.03 -45.94,44.22 -13.28,15.7 -25.82,32.79 -29.75,54.1 2.69,-1.47 5.44,-2.73 7.93,-4.4 32.79,-21.83 69.01,-34.7 108.02,-39.36 9.42,-1.1 19.08,-0.91 28.64,-0.97 3.72,-0.06 6.7,-0.91 9.42,-3.46 8.15,-7.49 17.93,-12.23 27.89,-16.57 39.97,-17.46 81.46,-30.23 124.79,-36.38 34.16,-4.8 68.43,-5.23 102.85,-1.37 50.65,5.66 98.41,20.75 144.05,43.07 1.96,0.95 3.85,2 5.77,3.04 4.87,2.81 9.39,6.76 14.59,8.21 4.85,1.36 10.36,0.13 15.59,0 35.36,-0.66 69.02,7.34 101.53,20.49 27.95,11.24 54.27,25.42 79.95,40.97 11.57,7 22.31,15.3 30.87,25.98 15.1,18.62 20.88,39.68 15.64,63.39 -2.19,9.61 -6.75,17.84 -13.3,25.07 -6.53,7.1 -13.88,13.24 -22.22,18.01 -9.44,5.36 -19.01,10.56 -28.63,15.56 -12.41,6.43 -24.63,12.96 -35.72,21.4 -0.09,4.88 2.85,3.95 5.8,2.98 12.42,-2.07 24.9,-4.16 37.25,-6.15 19.46,-3.1 39.07,-2.87 58.56,-3.03 12.65,-0.07 25.24,0.48 37.84,1.08 39.27,1.95 77.84,7.54 115.5,19.43 5.59,1.8 10.89,4.97 17.75,5.2 0.08,-11.11 -2.73,-21.57 -4.82,-32.12 -17.92,-94.11 -49.4,-183.62 -91.36,-269.6 -18.49,-37.91 -37.99,-75.29 -56.93,-112.94 -7.32,-14.35 -13.87,-29.06 -19.18,-44.22 -4.19,-12.36 -7.11,-24.97 -7.11,-38.29 0,-12.46 2.78,-24.03 7.99,-35.2 5.93,-12.71 13.45,-24.41 22.02,-35.42 21.04,-27.16 42.34,-54.16 63.63,-81.19 35.77,-45.58 68.04,-93.49 94.63,-145.09 31.53,-61.08 53.92,-125.18 63.79,-193.52 3.05,-21.05 4.29,-42.29 5.72,-63.52 1.7,-24.91 0.18,-49.61 -1.76,-74.25 -4.59,-57.1 -17.48,-112.42 -39.24,-165.49 -27.3,-65.94 -66.06,-124.22 -115.92,-175.14 -49.15,-50.22 -105.7,-90.31 -167.76,-122.83 -51.39,-26.9 -105.49,-47.26 -160.47,-65.19 -59.15,-19.29 -119.38,-34.32 -180.45,-46.24 -33.73,-6.56 -67.6,-12.08 -101.64,-17.04 -40.4,-5.79 -81.01,-10.42 -121.7,-14.45 -25.56,-2.54 -51.17,-4.43 -76.7,-6.2 -25.19,-1.78 -50.35,-3.44 -75.54,-4.46 -43.88,-1.87 -87.85,-2.03 -131.77,-1.46 -46.51,0.58 -92.96,2.9 -139.39,6.67 -44.16,3.57 -88.25,8.38 -132.2,14.35 -48.74,6.71 -97.18,14.62 -145.29,24.39 -72.04,14.64 -143.69,30.51 -213.36,54.44 -109.66,37.61 -210.04,92.03 -300.16,164.99 -19.35,15.59 -37.31,32.68 -50.12,54.39 0.06,2.63 0.94,4.36 3.96,3.42 22.63,-7.79 45.28,-15.42 67.79,-23.3 37.33,-13 74.52,-26.31 113.07,-35.48 29.21,-6.99 58.69,-12.32 88.3,-17.09 23.99,-3.88 48.14,-7.1 72.35,-9.94 20.26,-2.4 40.62,-4.26 60.99,-5.4 28.16,-1.58 56.46,-2.91 84.68,-3.03 45.17,-0.3 90.27,2.41 135.29,7.11 113.57,11.87 223.05,39.78 328.43,83.56 48.63,20.24 92.95,47.37 131.57,83.22 56.07,52.31 92.22,115.71 108.1,190.83 7.3,34.7 9.16,69.83 6.93,105.07 -2.16,33.46 -8.62,66.27 -18.42,98.36 -1.45,4.57 -2.66,9.17 -3.93,13.72"
         style="fill:#cdccca;fill-opacity:1;fill-rule:evenodd;stroke:none"
         id="path3096"
         inkscape:connector-curvature="0" /><path
         d="m 6441.33,4806.64 c -69.95,0.69 -129.34,15.39 -185.11,44.11 -48.14,24.82 -80.9,63.63 -100.77,113.58 -17.24,43.45 -27.97,88.52 -32.34,135.15 -1.05,11.73 -2.07,23.37 -1.77,35.16 0.4,14.06 3.12,27.58 8.76,40.53 6.56,15.48 16.6,28.43 30.07,38.75 9.33,7.19 19.54,12.95 30.46,17.45 39.87,16.47 81.17,27.78 124.16,33.04 33.62,4.02 67.39,7.55 101.24,9.38 39.16,2.06 78.23,0.98 117.32,-2.72 22.46,-2.11 44.89,-4.04 67.03,-9.21 24.46,-5.68 46.57,-16.18 67.61,-29.74 21.97,-14.21 35.46,-34.11 43.21,-58.53 6.85,-21.36 9.12,-43.36 7.05,-65.68 -3.33,-36.84 -8.75,-73.33 -17.7,-109.24 -9.35,-38.17 -22.63,-74.87 -42.76,-108.79 -6.98,-11.7 -15.09,-22.32 -25.81,-30.89 -7.53,-5.98 -15.55,-11.07 -24.44,-14.8 -39.49,-16.67 -80.13,-28.47 -122.68,-34.05 -16.7,-2.2 -33.67,-3.89 -43.53,-3.5"
         style="fill:#ffffff;fill-opacity:1;fill-rule:evenodd;stroke:none"
         id="path3098"
         inkscape:connector-curvature="0" /><path
         d="m 5456.01,5277.88 c 22.62,2.22 47.82,0.16 72.99,-1.47 27.32,-1.77 54.38,-6.08 81.26,-11.24 32.83,-6.37 65.34,-14.49 97.83,-22.33 32.24,-7.74 59.73,-23.04 81.55,-48.33 17.08,-19.77 24.98,-42.48 23.92,-68.39 -1.44,-33.63 -7.44,-66.48 -17.09,-98.66 -10.36,-34.25 -25.18,-66.58 -43.35,-97.42 -21.64,-36.99 -52.28,-63.69 -91.56,-80.23 -37.08,-15.62 -75.65,-25.06 -116.02,-27.9 -39.48,-2.78 -78.04,1.99 -116.08,11.95 -21.49,5.59 -42.75,11.7 -63.33,20.04 -23.73,9.63 -44.52,23.49 -60.62,43.82 -8.42,10.66 -14.99,22.35 -19.97,34.93 -15.49,38.83 -29.08,78.2 -37.57,119.22 -7.52,36.33 -11.81,72.93 -9.63,110.13 0.82,13.91 3.21,27.61 7.2,41 6.87,22.88 21.7,38.27 44.17,46.15 24.2,8.56 49.13,14.58 74.33,19.25 29.54,5.42 59.35,8.82 91.97,9.48"
         style="fill:#ffffff;fill-opacity:1;fill-rule:evenodd;stroke:none"
         id="path3100"
         inkscape:connector-curvature="0" /><path
         d="m 6087.09,5261.47 c -13.47,-5.23 -27.65,-7.45 -41.7,-10.03 -27.84,-5.23 -55.82,-8.28 -84.26,-7.94 -39.32,0.46 -77.96,6.21 -114.9,20.12 -44.89,17 -91.3,27.78 -138.22,36.67 -36.74,6.9 -73.6,12.91 -110.71,17.45 -30.15,3.75 -60.43,7.22 -90.78,8.86 -26,1.47 -51.96,3.17 -78.01,4.58 -7.81,0.43 -15.58,0.02 -22.96,0.02 -2.74,3.87 0.44,5.37 1.81,7.13 27.34,35.68 58.53,67.68 92.67,96.83 37.92,32.22 78.44,60.46 121.85,84.77 5.22,2.94 10.32,6.47 16.39,7.74 71.38,23.43 145.1,35.4 219.6,43.04 24.32,2.52 48.83,3.83 72.8,3.79 77.01,-0.22 153.23,-8.04 222.83,-45.11 36.79,-19.6 69.27,-44.72 93.64,-79.46 20.86,-29.74 16.28,-52.63 -14.69,-72.09 -12.68,-7.9 -26.68,-12.75 -39.8,-19.6 -15.1,-7.82 -15.39,-10.56 -2.48,-21.05 11.16,-9.05 11.23,-18.7 -0.44,-27.94 -12.04,-9.58 -26.3,-15.46 -40.15,-21.77 -20.46,-9.34 -41.24,-18.39 -62.49,-26.01"
         style="fill:#ffffff;fill-opacity:1;fill-rule:evenodd;stroke:none"
         id="path3102"
         inkscape:connector-curvature="0" /><path
         d="m 4407.52,3867.51 c 0.88,-0.95 1.99,-2.12 3.07,-0.65 3.74,5.37 7.32,10.79 10.93,16.15 2.93,4.4 6.53,8.14 10.83,11.17 1.37,0.92 3.85,-0.23 4.16,-1.84 0.52,-3.02 0.1,-6 -0.53,-9.01 -3.22,-16.49 -6.3,-33.04 -9.28,-49.63 -0.54,-3.41 -0.23,-6.96 -0.3,-10.4 -0.08,-5.23 -0.83,-10.32 -1.52,-15.46 -1.81,-13.35 -1.98,-26.86 0.22,-40.26 0.4,-2.13 1.13,-4.21 1.19,-6.3 0.41,-11.71 1.03,-23.3 2.3,-35.01 2.02,-18.53 4.63,-36.9 8.67,-55.06 6.05,-27.31 16.59,-52.94 30.42,-77.13 8.17,-14.33 17.55,-27.94 29.45,-39.55 5.58,-5.48 11.24,-10.94 16.57,-16.65 15.24,-16.54 33.96,-28.3 52.76,-40 33.48,-20.81 70.53,-32.91 108.05,-44.28 24.9,-7.55 50.61,-11.07 75.87,-17.07 9.15,-2.11 18.91,-2.11 28.29,-3.24 11.13,-1.35 22.28,-3.08 33.39,-4.47 1.72,-0.27 3.41,-0.62 5.19,-0.62 6.89,-0.09 13.79,-0.37 20.59,-2.25 4.05,-1.08 8.62,-0.28 12.93,-0.48 12.63,-0.42 25.24,1.42 37.66,-2.33 2.38,-0.71 5.15,-0.22 7.79,-0.22 33.94,-0.04 67.89,-0.04 101.83,0 4.76,0 9.52,-0.29 14.23,1.46 4.51,1.88 9.41,0.85 14.18,1.09 12.09,0.57 24.37,-1.55 36.23,2.42 11.81,-1.18 23.11,3.16 34.95,3.08 7.71,-0.11 15.44,1.73 23.06,2.96 23.44,4.09 46.88,8.26 69.75,14.98 20.79,6.03 41.29,12.93 61.52,20.92 21.55,8.52 41.15,20.5 60.89,32.31 8.49,5.05 15.91,11.95 24.02,17.73 11.01,7.94 20.62,17.36 29.64,27.35 15.14,16.7 29.22,34.18 40.84,53.69 7.09,12.01 13.47,24.31 19.44,36.86 4.35,8.99 8.76,17.98 12.14,27.36 12.09,33.47 21.85,67.64 28.78,102.51 2.72,13.57 3.11,27.58 6.2,41.02 2.13,9.76 1.02,19.94 4.23,29.51 1.12,3.14 0.48,6.86 0.59,10.37 0.12,4.76 -0.07,9.46 1.6,14.17 0.95,2.78 0.88,5.95 0.98,9.02 0.28,9.44 -0.66,19.05 2.31,28.41 0.91,2.8 0.45,6.11 0.28,9.08 -0.49,7.05 0.89,13.85 2.66,20.55 3.61,13.63 13.99,22.25 27.92,23.21 7.56,0.55 14.64,-1.02 21.56,-3.86 2.37,-0.99 4.18,-0.49 5.78,1.33 12.6,-18.16 25.86,-35.92 37.61,-54.61 25.1,-39.95 40.77,-83.53 46.04,-130.55 10.85,-98 -16.81,-183.97 -81.81,-257.93 -20.74,-23.63 -44.9,-43.53 -71.61,-60.31 -57.25,-36.06 -119.21,-60.63 -184.89,-76.05 -41.92,-9.79 -84.51,-15.81 -127.5,-19.11 -39.05,-2.95 -78.12,-5.34 -117.18,-6.85 -28.67,-1.1 -57.4,-1.66 -86.09,-1.37 -32.62,0.23 -65.17,1.21 -97.71,3.89 -85.37,7.2 -168.72,23.3 -248.83,54.37 -42.02,16.25 -81.74,36.58 -117.23,64.57 -55.42,43.67 -91.03,99.68 -105.9,168.76 -7.28,33.73 -10.92,67.78 -9.13,102.29 2.18,42.45 11.17,83.49 26.27,123.17 0.9,2.41 2.48,4.5 3.65,6.79"
         style="fill:#cdccca;fill-opacity:1;fill-rule:evenodd;stroke:none"
         id="path3104"
         inkscape:connector-curvature="0" /><path
         d="m 6214.02,4577.31 c -45.69,-1.35 -86.78,13.78 -125.43,37.08 -19.47,11.67 -39.47,22.03 -60.96,29.44 -25.31,8.79 -51.27,13.31 -78.07,11.47 -21.51,-1.46 -42.01,-6.6 -61.82,-14.83 -16.14,-6.7 -31.28,-15.16 -46.01,-24.61 -18.02,-11.67 -37.64,-19.57 -58.68,-24.27 -60.59,-13.5 -127.33,6.96 -167.1,53.03 -4.08,4.67 -7.75,9.52 -10.6,14.87 -7.49,13.99 -5.59,26.79 5.37,38.17 7.38,7.64 16.38,12.8 25.72,17.58 18.17,9.32 36.48,18.4 54.44,28 71.26,37.95 138.55,81.74 200.53,133.5 14.61,12.16 30.62,21.74 49.01,26.4 36.02,9.16 69.87,3.4 98.04,-21.01 63.67,-54.99 135.04,-97.8 208.9,-137.15 21.49,-11.43 43.13,-22.52 64.63,-33.98 7.97,-4.35 15.82,-9.12 23.36,-14.09 6.23,-4.02 11.72,-9.09 16.21,-15.06 8.21,-10.82 9.13,-22.22 2.59,-34.15 -2.94,-5.37 -6.61,-10.23 -10.92,-14.55 -21.31,-21.14 -45.69,-37.51 -73.79,-48 -15.27,-5.73 -34.92,-9.65 -55.42,-7.84"
         style="fill:#ffffff;fill-opacity:1;fill-rule:evenodd;stroke:none"
         id="path3106"
         inkscape:connector-curvature="0" /><path
         d="m 5345.52,4235.12 c -1.24,1.34 -2.66,2.36 -4.5,2.32 -7.78,-0.16 -15.6,1.04 -23.25,-1.57 -3.21,-1.1 -6.9,-0.75 -10.4,-0.82 -10.39,-0.09 -20.84,-0.03 -31.27,-0.09 -6.5,-0.03 -12.92,-0.23 -19.38,-1.84 -5.76,-1.43 -12.1,-0.55 -18.17,-0.74 -9.09,-0.3 -18.04,0.36 -27.18,-1.99 -6.16,-1.58 -12.95,-0.5 -19.44,-0.63 -6.06,-0.16 -12.2,0.49 -18.07,-1.86 -1.9,-0.82 -4.27,-0.62 -6.48,-0.69 -10.37,-0.26 -20.86,0.75 -30.99,-2.55 -15.69,1.51 -30.98,-3.65 -46.62,-2.84 -3.43,0.16 -6.92,-0.65 -10.32,-1.21 -2.07,-0.26 -4.28,-1.31 -6.32,-1.14 -11.84,1.14 -23.4,-1.6 -34.85,-3.37 -11.1,-1.66 -22.6,-0.36 -33.4,-4.35 -10.05,1.02 -19.67,-2.58 -29.67,-3.1 -10.25,-0.53 -20.52,-2.64 -30.72,-4.31 -6.85,-1.08 -13.71,-1.38 -20.58,-2.75 -14.77,-2.81 -29.94,-3.82 -44.89,-5.88 -11.98,-1.76 -23.88,-3.85 -35.8,-5.88 -13.63,-2.33 -27.24,-4.67 -40.81,-7.19 -17.42,-3.34 -34.78,-6.73 -52.12,-10.39 -20.69,-4.25 -41.6,-8.17 -62.06,-13.46 -18.45,-4.78 -37.24,-7.62 -55.82,-12 -8.33,-1.93 -17.38,-1.14 -25.6,-3.44 -14.46,-4 -29.55,0 -43.8,-4.77 -16.82,0.56 -33.87,-2.14 -50.65,1.84 -2.86,0.74 -6.02,0.32 -9.02,0.55 -35.18,2.58 -68.53,11.22 -97.77,31.61 -13.58,9.4 -24.63,21.72 -32.82,36.43 -6.9,12.28 -11.21,25.32 -13.73,39.09 -0.43,2.09 -0.45,4.28 -0.45,6.47 -0.07,14.8 -0.72,29.6 0.22,44.34 0.76,11.14 2.97,22.29 5.62,33.21 6.38,26.56 15.27,52.35 26.25,77.45 10.72,24.31 22.94,47.8 34.96,71.4 7.26,14.24 15.85,27.87 24.55,41.4 5.67,8.79 13.04,16.08 24.02,18.82 3.94,1.02 7.27,1.6 11.23,0.14 2.84,-1.02 6.33,-3.96 9.54,-0.27 8.25,-12.8 14,-26.89 20.39,-40.62 11.35,-23.96 22.11,-48.23 33.67,-72.09 13.99,-29.05 29.87,-57.02 50.66,-81.9 6.67,-8 13.75,-15.68 21.24,-23 14.86,-14.61 14.21,-27.02 1.36,-42.25 -3.67,-4.29 -7.9,-8.07 -11.82,-12.17 -2.17,-2.12 -4.5,-4.08 -6.38,-6.46 -8.12,-10.59 -3.53,-24.05 9.43,-27.64 4.65,-1.32 9.47,-1.38 14.26,-0.79 20.67,2.35 41.44,4.7 62.16,7.32 30.65,3.89 61.18,8.17 91.9,11.87 27.57,3.36 55.23,6.27 82.97,9.15 12.93,1.37 25.92,2.53 38.9,3.26 49.54,2.81 99.01,5.13 148.58,6.57 89.2,2.51 178.35,0.76 267.57,1.5 7.88,0.07 15.68,-0.45 23.28,-2.42 11.3,-2.87 14.82,-9.44 11.02,-20.45 -1.94,-5.75 -4.31,-11.34 -8.63,-15.82"
         style="fill:#cdccca;fill-opacity:1;fill-rule:evenodd;stroke:none"
         id="path3108"
         inkscape:connector-curvature="0" /><path
         d="m 6087.09,5261.47 c 10.45,7.09 21.8,12.62 33.49,17.26 18.91,7.64 37.36,16.27 55.46,25.65 4.25,2.19 8.21,4.93 12.2,7.54 1.39,0.96 2.62,2.19 3.82,3.47 5.77,6.87 4.83,13.92 -2.75,18.63 -4.51,2.68 -9.24,4.7 -12.76,8.75 -3.19,3.7 -3.26,5.49 -0.09,8.99 2.69,2.91 5.66,5.39 9.28,6.99 7.5,3.41 14.81,7.09 22.42,10.4 13.88,5.99 27.66,12.71 38.33,23.99 9.73,10.35 13.31,22.08 7.99,35.84 -2.49,6.54 -5.3,12.71 -9.77,18.24 -7.63,9.44 -14.21,19.58 -23.04,28.16 -16.13,15.86 -34.2,29.28 -53.13,41.54 -11.74,7.52 -24.14,13.69 -37.1,18.88 -8.44,3.37 -16.58,7.33 -25.3,10.24 -22.55,7.65 -45.65,13.5 -69.12,17.32 -9.71,1.56 -19.73,2.48 -29.6,3.76 -16.39,2.15 -32.81,1.43 -49.23,2.48 -8.22,0.52 -16.26,2.94 -24.53,2.28 -1.73,-0.12 -3.59,0.33 -5.16,-0.12 -14.62,-4.02 -29.38,-1.94 -44.15,-2.42 -6.43,-0.24 -13,0.52 -19.17,-2.16 -1.24,-0.42 -2.62,-0.42 -3.93,-0.4 -16.16,0.56 -31.87,-2.18 -47.69,-5.02 -6.71,-1.22 -13.66,-1.31 -20.51,-2.45 -14.45,-2.42 -28.91,-5.59 -43.34,-7.65 -18.87,-2.71 -37.32,-7.61 -55.91,-11.47 -15.26,-3.13 -30.24,-7.42 -45.25,-11.44 -3.48,-0.95 -6.83,-1.31 -10.28,-1.08 1.66,1.28 3.26,2.85 5.16,3.76 54.92,27.03 112.55,45.85 172.89,56.54 33.89,6.04 67.86,9.54 102.27,10.75 115.49,3.95 225.81,-17.28 330.72,-65.79 85.16,-39.28 157.63,-95.03 216.6,-168.14 8.49,-10.45 16.2,-21.56 24.11,-32.48 2.73,-3.78 1.85,-5.54 -2.42,-5.75 -4.84,-0.09 -9.54,0.1 -14.38,-0.13 -38.63,-1.7 -77.14,-5 -115.68,-9.64 -79.11,-9.51 -156.76,-26.43 -233.75,-46.69 -12.15,-3.17 -24.08,-7.36 -36.7,-8.63"
         style="fill:#cdccca;fill-opacity:1;fill-rule:evenodd;stroke:none"
         id="path3110"
         inkscape:connector-curvature="0" /><path
         d="m 5533.86,4678.61 c -2.11,2.91 -5.07,3.13 -8.17,2.42 -14.55,-3.33 -29.18,-3.11 -43.76,-0.2 -3.33,0.63 -6.92,0.49 -10.38,0.63 -13.33,0.55 -26.91,-1.45 -40.06,2.5 -1.26,0.36 -2.61,0.1 -3.92,0.1 -13.48,-0.32 -26.54,2.49 -39.85,4.48 -8.88,1.35 -17.93,2.12 -26.88,3.3 -13.3,1.77 -26.38,4.51 -39.37,7.69 -6.22,9.92 -9.25,21.13 -13.07,32.06 -7.32,21.07 -13.59,42.51 -17.04,64.59 18.03,0.95 35.16,-3.82 52.49,-7.45 2.09,-0.55 4.25,-0.87 6.2,-1.73 31.17,-12.87 63.86,-19.67 97.13,-24.37 20.21,-2.84 40.61,-4.52 61.02,-4.75 44.97,-0.38 89.31,5.53 132.43,18.54 2.47,0.75 5.09,1.13 7.57,1.69 1.16,1.18 2.27,1.18 3.33,0 -2.69,-4.21 -7.5,-5.58 -11.43,-7.96 -17.93,-10.46 -36.01,-20.7 -53.99,-31.05 -12.41,-7.13 -24.24,-15 -34.23,-25.46 -8.6,-8.85 -15.18,-18.83 -16.6,-31.48 -0.14,-1.19 -0.98,-2.34 -1.42,-3.55"
         style="fill:#cdccca;fill-opacity:1;fill-rule:evenodd;stroke:none"
         id="path3112"
         inkscape:connector-curvature="0" /><path
         d="m 4220.02,4075.71 c 0.77,-1.01 2.1,-1.96 2.27,-3.03 5.11,-38.67 14.25,-76.44 24,-114.09 8.85,-34.55 21.43,-67.77 38.86,-98.98 6.03,-10.79 14.34,-19.71 23.68,-27.49 5.94,-5.03 12.92,-8.75 20.98,-9.64 -1.11,-6.8 -1.9,-13.69 -3.28,-20.46 -1.43,-7.3 -2.09,-14.57 -2.33,-21.92 -1.39,-37.67 -2.3,-75.39 -1.26,-113.07 0.85,-32.1 4.65,-63.92 12.48,-95.1 0.85,-2.95 1.9,-5.98 -3.19,-5.48 -16.87,12.54 -28.34,29.02 -36.07,48.43 -12.13,30.23 -22.11,61.21 -31.44,92.35 -13.93,46.1 -25.18,92.99 -33.34,140.45 -5.34,31.67 -9.32,63.55 -11.82,95.64 -3.15,39.03 -2.92,78.01 -1.67,117.1 0.17,5.1 -0.7,10.5 2.13,15.29"
         style="fill:#cdccca;fill-opacity:1;fill-rule:evenodd;stroke:none"
         id="path3114"
         inkscape:connector-curvature="0" /><path
         d="m 5784.37,4858.99 c 53.8,59.35 89,129.22 115.63,203.92 5.57,15.56 11.8,30.89 17.11,46.5 5.6,16.51 17.31,24.77 33.93,25.82 13.43,0.82 27.01,0.66 40.41,-0.39 14.2,-1.14 23.33,-8.34 27.93,-21.67 5.03,-14.38 10.52,-28.59 15.3,-42.97 17.9,-54.35 42.25,-105.72 73,-153.92 7.52,-11.7 15.88,-22.84 23.76,-34.25 0.06,-0.58 0.06,-1.13 0.06,-1.72 -0.41,0 -0.98,-0.13 -1.29,0.12 -17.44,10.33 -34.84,20.75 -51.41,32.71 -9.88,10.52 -16.09,23.63 -22.96,36.15 -10.45,19.21 -23.45,36.63 -37.58,53.13 -13.88,16.28 -31.59,27.33 -52.54,32.16 -31.43,7.26 -53.57,-8.64 -72.35,-31.14 -23,-27.61 -39.93,-58.99 -55.03,-91.34 -3.86,-8.27 -7.75,-16.47 -11.57,-24.74 -13.05,-11.92 -27.24,-22.42 -42.55,-31.21 -0.79,0.69 -1.05,1.35 -0.72,1.97 0.3,0.62 0.59,0.87 0.87,0.87"
         style="fill:#cdccca;fill-opacity:1;fill-rule:evenodd;stroke:none"
         id="path3116"
         inkscape:connector-curvature="0" /><path
         d="m 5826.77,4887.36 c -1.8,1.05 -2.09,2.55 -1.27,4.35 7.59,16.11 14.5,32.51 22.94,48.17 9.04,16.73 18.07,33.53 29.48,48.92 11.38,15.29 22.97,30.45 39.39,40.88 16.8,10.71 34.82,12.67 53.58,6.86 22.56,-6.9 41.04,-19.54 55.35,-38.85 6.39,-8.67 13.71,-16.7 19.5,-25.85 7.29,-11.25 14.17,-22.85 20.44,-34.67 4.29,-7.95 10.75,-14.88 12.62,-24.03 -13.6,6.7 -25.9,15.6 -38.68,23.53 -10.03,6.12 -19.7,12.62 -30.35,17.52 -9.94,4.57 -20,8.14 -30.91,9.42 -17.78,2.11 -34.51,-1.45 -50.45,-9.03 -6.29,-2.94 -12.37,-6.34 -18.2,-9.93 -25.64,-15.55 -50.78,-31.7 -73.89,-50.66 -2.98,-2.45 -6.41,-4.44 -9.55,-6.63"
         style="fill:#ffffff;fill-opacity:1;fill-rule:evenodd;stroke:none"
         id="path3118"
         inkscape:connector-curvature="0" /><path
         d="m 5828.16,4548.96 c 32.7,22.27 66.72,38.73 105.5,44.03 40.63,5.58 78.61,-2.98 115.12,-20.1 8.7,-4.02 16.96,-8.79 25.4,-13.26 9.84,-5.21 19.74,-10.4 29.53,-15.63 -0.73,-2.87 -3.16,-3.14 -5.12,-3.79 -17.3,-5.87 -35.1,-9.93 -53.13,-12.54 -18.89,-2.79 -37.91,-5.3 -56.81,-7.29 -9.11,-0.95 -18.3,-0.82 -27.43,-0.36 -44.59,2.19 -87.75,11.3 -129.81,26.17 -0.73,0.27 -1.25,1.06 -3.25,2.77"
         style="fill:#ffffff;fill-opacity:1;fill-rule:evenodd;stroke:none"
         id="path3120"
         inkscape:connector-curvature="0" /><path
         d="m 5343.85,4788.73 c -17.99,-1.01 -35.45,1.68 -52.49,7.45 -1.23,6.25 -2.42,12.42 -3.7,18.57 -0.8,3.07 -1.61,6.02 3.43,5.19 14.92,-10.85 30.62,-20.26 47.37,-27.9 1.92,-0.85 3.61,-2.19 5.39,-3.31"
         style="fill:#cdccca;fill-opacity:1;fill-rule:evenodd;stroke:none"
         id="path3122"
         inkscape:connector-curvature="0" /><path
         d="m 6784.21,5208.82 c -4.78,0.04 -12.1,1.15 -19.17,3.43 -1.3,0.43 -2.87,2.33 -3,3.66 -0.12,1.4 1.03,3.56 2.28,4.38 2.04,1.48 4.64,2.52 7.03,3.11 15.46,4.12 30.16,1.96 44.28,-4.9 0.66,-0.27 1.25,-1.31 1.38,-2.04 0.45,-1.76 -1.18,-1.92 -2.22,-2.41 -8.83,-3.88 -18.19,-5.49 -30.58,-5.23"
         style="fill:#f8f9f9;fill-opacity:1;fill-rule:evenodd;stroke:none"
         id="path3124"
         inkscape:connector-curvature="0" /><path
         d="m 5170.14,5239.55 c 5.94,-0.76 13.25,-1.55 19.53,-5.95 2.26,-1.61 2.62,-4.02 0.38,-5.1 -15.17,-7.26 -30.51,-7.78 -46.02,-0.79 -2.24,0.98 -2.01,3.4 0.27,4.9 6.8,4.38 16.37,7.1 25.84,6.94"
         style="fill:#f8fafa;fill-opacity:1;fill-rule:evenodd;stroke:none"
         id="path3126"
         inkscape:connector-curvature="0" /><path
         d="m 4523.58,3355.5 c -1.29,-1.17 -2.6,-2.29 -3.96,-3.42 -0.65,0.52 -1.57,0.84 -1.84,1.5 -0.41,1.01 -0.9,2.67 -0.41,3.27 0.65,0.68 2.31,0.86 3.35,0.64 1.05,-0.25 1.89,-1.3 2.86,-1.99"
         style="fill:#809827;fill-opacity:1;fill-rule:evenodd;stroke:none"
         id="path3128"
         inkscape:connector-curvature="0" /><path
         d="m 5855,4791.03 c -5.74,-0.03 -11.3,0.81 -16.2,3.82 -5.82,3.49 -7.92,9.28 -5.87,15.64 1.55,4.61 3.96,8.8 7.32,12.17 16.63,16.3 36.53,24.5 59.92,23.46 2.58,-0.16 5.23,-0.72 7.57,-1.64 9.07,-3.42 12.16,-11.01 8.43,-19.89 -1.88,-4.52 -4.71,-8.4 -8.26,-11.64 -14.97,-13.69 -32.71,-20.82 -52.91,-21.92"
         style="fill:#110f0d;fill-opacity:1;fill-rule:evenodd;stroke:none"
         id="path3130"
         inkscape:connector-curvature="0" /><path
         d="m 6021.71,4846.41 c 20.54,-1.57 38.59,-8.95 53.23,-23.73 4.67,-4.76 7.9,-10.26 7.67,-17.3 -0.17,-4.81 -2.28,-8.31 -6.31,-10.63 -3.75,-2.22 -7.9,-3.5 -12.29,-3.53 -23.4,-0.36 -43.08,8.13 -59.4,24.67 -4.01,4.05 -6.61,8.98 -6.88,15 -0.17,5.29 1.95,9.18 6.32,11.93 5.39,3.33 11.48,3.69 17.66,3.59"
         style="fill:#110f0d;fill-opacity:1;fill-rule:evenodd;stroke:none"
         id="path3132"
         inkscape:connector-curvature="0" /><path
         d="m 6375.29,5015.4 c 0,-34.45 -27.99,-62.39 -62.38,-62.39 -34.45,0 -62.36,27.94 -62.36,62.39 0,34.4 27.91,62.32 62.36,62.32 34.39,0 62.38,-27.92 62.38,-62.32"
         style="fill:#ffffff;fill-opacity:1;fill-rule:nonzero;stroke:none"
         id="path3134"
         inkscape:connector-curvature="0" /><path
         d="m 6312.91,5048.57 c -18.3,0 -33.2,-14.9 -33.2,-33.17 0,-18.33 14.9,-33.21 33.2,-33.21 18.29,0 33.15,14.88 33.15,33.21 0,18.27 -14.86,33.17 -33.15,33.17 z m 0,-124.71 c -50.45,0 -91.54,41.08 -91.54,91.54 0,50.42 41.09,91.5 91.54,91.5 50.45,0 91.48,-41.08 91.48,-91.5 0,-50.46 -41.03,-91.54 -91.48,-91.54"
         style="fill:#100f0d;fill-opacity:1;fill-rule:nonzero;stroke:none"
         id="path3136"
         inkscape:connector-curvature="0" /><path
         d="m 5671.61,5015.4 c 0,-34.45 -27.94,-62.39 -62.35,-62.39 -34.41,0 -62.35,27.94 -62.35,62.39 0,34.4 27.94,62.32 62.35,62.32 34.41,0 62.35,-27.92 62.35,-62.32"
         style="fill:#ffffff;fill-opacity:1;fill-rule:nonzero;stroke:none"
         id="path3138"
         inkscape:connector-curvature="0" /><path
         d="m 5609.26,5048.57 c -18.32,0 -33.21,-14.9 -33.21,-33.17 0,-18.33 14.89,-33.21 33.21,-33.21 18.3,0 33.2,14.88 33.2,33.21 0,18.27 -14.9,33.17 -33.2,33.17 z m 0,-124.71 c -50.5,0 -91.55,41.08 -91.55,91.54 0,50.42 41.05,91.5 91.55,91.5 50.46,0 91.51,-41.08 91.51,-91.5 0,-50.46 -41.05,-91.54 -91.51,-91.54"
         style="fill:#100f0d;fill-opacity:1;fill-rule:nonzero;stroke:none"
         id="path3140"
         inkscape:connector-curvature="0" /></g></g></svg>